<svg width="92" height="92" viewBox="0 0 92 92" fill="none" xmlns="http://www.w3.org/2000/svg">
<g clip-path="url(#clip0_1302_64)">
<circle cx="46" cy="46" r="8" stroke="white" stroke-width="6"/>
<path d="M17.247 26.92C16.453 28.1186 15.7376 29.3619 15.103 30.6415C13.6519 33.5675 15.0419 36.9792 17.8704 38.6122L20.1663 39.9378C24.833 42.6321 24.833 49.3678 20.1663 52.0621L17.8698 53.3881C15.0386 55.0226 13.6502 58.4387 15.1089 61.3644C15.4252 61.9989 15.7629 62.6277 16.1221 63.2499C16.4813 63.8721 16.857 64.4789 17.2482 65.0699C19.0527 67.7961 22.7053 68.3017 25.5365 66.6671L27.8331 65.3412C32.4998 62.6469 38.3331 66.0148 38.3331 71.4034L38.3331 74.0547C38.3331 77.3208 40.5927 80.2304 43.8522 80.4367C45.2777 80.527 46.7121 80.529 48.1471 80.4407C51.4069 80.24 53.6668 77.3301 53.6668 74.0641L53.6668 71.4036C53.6668 66.015 59.5001 62.6472 64.1668 65.3415L66.4709 66.6717C69.2993 68.3047 72.9492 67.8025 74.7529 65.0798C75.547 63.8813 76.2624 62.6379 76.897 61.3584C78.3481 58.4324 76.958 55.0207 74.1296 53.3876L71.8334 52.062C67.1667 49.3677 67.1667 42.6319 71.8334 39.9376L74.1301 38.6116C76.9613 36.977 78.3497 33.5609 76.891 30.6352C76.5747 30.0008 76.2371 29.3721 75.8779 28.7499C75.5186 28.1277 75.1429 27.5209 74.7516 26.9297C72.9472 24.2036 69.2946 23.6979 66.4634 25.3325L64.1668 26.6585C59.5001 29.3528 53.6668 25.9849 53.6668 20.5963L53.6668 17.9452C53.6668 14.6791 51.4072 11.7694 48.1477 11.5631C46.7222 11.4729 45.2878 11.4708 43.8527 11.5592C40.593 11.7599 38.3331 14.6698 38.3331 17.9357L38.3331 20.5962C38.3331 25.9848 32.4998 29.3527 27.8331 26.6584L25.5291 25.3282C22.7007 23.6952 19.0508 24.1973 17.247 26.92Z" stroke="white" stroke-width="6" stroke-linejoin="round"/>
</g>
<defs>
<clipPath id="clip0_1302_64">
<rect width="92" height="92" fill="white"/>
</clipPath>
</defs>
</svg>
