<svg width="227" height="544" viewBox="0 0 227 544" fill="none" xmlns="http://www.w3.org/2000/svg">
<g clip-path="url(#clip0_12_11)">
<g clip-path="url(#clip1_12_11)">
<path d="M15.777 356.234C15.777 355.775 15.6864 355.32 15.5106 354.895C15.3347 354.47 15.0769 354.085 14.7519 353.759C14.4268 353.434 14.041 353.177 13.6164 353.001C13.1917 352.825 12.7366 352.734 12.277 352.734H4.27698C3.34872 352.734 2.45848 353.103 1.8021 353.759C1.14573 354.416 0.776978 355.306 0.776978 356.234V364.234C0.776978 365.163 1.14573 366.053 1.8021 366.709C2.45848 367.366 3.34872 367.734 4.27698 367.734H12.277C12.7366 367.734 13.1917 367.644 13.6164 367.468C14.041 367.292 14.4268 367.034 14.7519 366.709C15.0769 366.384 15.3347 365.998 15.5106 365.574C15.6864 365.149 15.777 364.694 15.777 364.234V356.234ZM15.777 372.234C15.777 371.775 15.6864 371.32 15.5106 370.895C15.3347 370.47 15.0769 370.085 14.7519 369.759C14.4268 369.434 14.041 369.177 13.6164 369.001C13.1917 368.825 12.7366 368.734 12.277 368.734H4.27698C3.34872 368.734 2.45848 369.103 1.8021 369.759C1.14573 370.416 0.776978 371.306 0.776978 372.234V380.234C0.776978 381.163 1.14573 382.053 1.8021 382.709C2.45848 383.366 3.34872 383.734 4.27698 383.734H12.277C12.7366 383.734 13.1917 383.644 13.6164 383.468C14.041 383.292 14.4268 383.034 14.7519 382.709C15.0769 382.384 15.3347 381.998 15.5106 381.574C15.6864 381.149 15.777 380.694 15.777 380.234V372.234ZM15.777 452.234C15.777 451.775 15.6864 451.32 15.5106 450.895C15.3347 450.47 15.0769 450.085 14.7519 449.759C14.4268 449.434 14.041 449.177 13.6164 449.001C13.1917 448.825 12.7366 448.734 12.277 448.734H4.27698C3.34872 448.734 2.45848 449.103 1.8021 449.759C1.14573 450.416 0.776978 451.306 0.776978 452.234V460.234C0.776978 461.163 1.14573 462.053 1.8021 462.709C2.45848 463.366 3.34872 463.734 4.27698 463.734H12.277C12.7366 463.734 13.1917 463.644 13.6164 463.468C14.041 463.292 14.4268 463.034 14.7519 462.709C15.0769 462.384 15.3347 461.998 15.5106 461.574C15.6864 461.149 15.777 460.694 15.777 460.234V452.234ZM15.777 468.234C15.777 467.775 15.6864 467.32 15.5106 466.895C15.3347 466.47 15.0769 466.085 14.7519 465.759C14.4268 465.434 14.041 465.177 13.6164 465.001C13.1917 464.825 12.7366 464.734 12.277 464.734H4.27698C3.34872 464.734 2.45848 465.103 1.8021 465.759C1.14573 466.416 0.776978 467.306 0.776978 468.234V476.234C0.776978 477.163 1.14573 478.053 1.8021 478.709C2.45848 479.366 3.34872 479.734 4.27698 479.734H12.277C12.7366 479.734 13.1917 479.644 13.6164 479.468C14.041 479.292 14.4268 479.034 14.7519 478.709C15.0769 478.384 15.3347 477.998 15.5106 477.574C15.6864 477.149 15.777 476.694 15.777 476.234V468.234ZM15.777 484.234C15.777 483.775 15.6864 483.32 15.5106 482.895C15.3347 482.47 15.0769 482.085 14.7519 481.759C14.4268 481.434 14.041 481.177 13.6164 481.001C13.1917 480.825 12.7366 480.734 12.277 480.734H4.27698C3.34872 480.734 2.45848 481.103 1.8021 481.759C1.14573 482.416 0.776978 483.306 0.776978 484.234V492.234C0.776978 493.163 1.14573 494.053 1.8021 494.709C2.45848 495.366 3.34872 495.734 4.27698 495.734H12.277C12.7366 495.734 13.1917 495.644 13.6164 495.468C14.041 495.292 14.4268 495.034 14.7519 494.709C15.0769 494.384 15.3347 493.998 15.5106 493.574C15.6864 493.149 15.777 492.694 15.777 492.234V484.234ZM15.777 500.234C15.777 499.775 15.6864 499.32 15.5106 498.895C15.3347 498.47 15.0769 498.085 14.7519 497.759C14.4268 497.434 14.041 497.177 13.6164 497.001C13.1917 496.825 12.7366 496.734 12.277 496.734H4.27698C3.34872 496.734 2.45848 497.103 1.8021 497.759C1.14573 498.416 0.776978 499.306 0.776978 500.234V508.234C0.776978 509.163 1.14573 510.053 1.8021 510.709C2.45848 511.366 3.34872 511.734 4.27698 511.734H12.277C12.7366 511.734 13.1917 511.644 13.6164 511.468C14.041 511.292 14.4268 511.034 14.7519 510.709C15.0769 510.384 15.3347 509.998 15.5106 509.574C15.6864 509.149 15.777 508.694 15.777 508.234V500.234ZM31.777 356.234C31.777 355.775 31.6864 355.32 31.5106 354.895C31.3347 354.47 31.0769 354.085 30.7519 353.759C30.4268 353.434 30.041 353.177 29.6164 353.001C29.1917 352.825 28.7366 352.734 28.277 352.734H20.277C19.3487 352.734 18.4585 353.103 17.8021 353.759C17.1457 354.416 16.777 355.306 16.777 356.234V364.234C16.777 365.163 17.1457 366.053 17.8021 366.709C18.4585 367.366 19.3487 367.734 20.277 367.734H28.277C28.7366 367.734 29.1917 367.644 29.6164 367.468C30.041 367.292 30.4268 367.034 30.7519 366.709C31.0769 366.384 31.3347 365.998 31.5106 365.574C31.6864 365.149 31.777 364.694 31.777 364.234V356.234ZM31.777 372.234C31.777 371.775 31.6864 371.32 31.5106 370.895C31.3347 370.47 31.0769 370.085 30.7519 369.759C30.4268 369.434 30.041 369.177 29.6164 369.001C29.1917 368.825 28.7366 368.734 28.277 368.734H20.277C19.3487 368.734 18.4585 369.103 17.8021 369.759C17.1457 370.416 16.777 371.306 16.777 372.234V380.234C16.777 381.163 17.1457 382.053 17.8021 382.709C18.4585 383.366 19.3487 383.734 20.277 383.734H28.277C28.7366 383.734 29.1917 383.644 29.6164 383.468C30.041 383.292 30.4268 383.034 30.7519 382.709C31.0769 382.384 31.3347 381.998 31.5106 381.574C31.6864 381.149 31.777 380.694 31.777 380.234V372.234ZM31.777 452.234C31.777 451.775 31.6864 451.32 31.5106 450.895C31.3347 450.47 31.0769 450.085 30.7519 449.759C30.4268 449.434 30.041 449.177 29.6164 449.001C29.1917 448.825 28.7366 448.734 28.277 448.734H20.277C19.3487 448.734 18.4585 449.103 17.8021 449.759C17.1457 450.416 16.777 451.306 16.777 452.234V460.234C16.777 461.163 17.1457 462.053 17.8021 462.709C18.4585 463.366 19.3487 463.734 20.277 463.734H28.277C28.7366 463.734 29.1917 463.644 29.6164 463.468C30.041 463.292 30.4268 463.034 30.7519 462.709C31.0769 462.384 31.3347 461.998 31.5106 461.574C31.6864 461.149 31.777 460.694 31.777 460.234V452.234ZM31.777 468.234C31.777 467.775 31.6864 467.32 31.5106 466.895C31.3347 466.47 31.0769 466.085 30.7519 465.759C30.4268 465.434 30.041 465.177 29.6164 465.001C29.1917 464.825 28.7366 464.734 28.277 464.734H20.277C19.3487 464.734 18.4585 465.103 17.8021 465.759C17.1457 466.416 16.777 467.306 16.777 468.234V476.234C16.777 477.163 17.1457 478.053 17.8021 478.709C18.4585 479.366 19.3487 479.734 20.277 479.734H28.277C28.7366 479.734 29.1917 479.644 29.6164 479.468C30.041 479.292 30.4268 479.034 30.7519 478.709C31.0769 478.384 31.3347 477.998 31.5106 477.574C31.6864 477.149 31.777 476.694 31.777 476.234V468.234ZM31.777 484.234C31.777 483.775 31.6864 483.32 31.5106 482.895C31.3347 482.47 31.0769 482.085 30.7519 481.759C30.4268 481.434 30.041 481.177 29.6164 481.001C29.1917 480.825 28.7366 480.734 28.277 480.734H20.277C19.3487 480.734 18.4585 481.103 17.8021 481.759C17.1457 482.416 16.777 483.306 16.777 484.234V492.234C16.777 493.163 17.1457 494.053 17.8021 494.709C18.4585 495.366 19.3487 495.734 20.277 495.734H28.277C28.7366 495.734 29.1917 495.644 29.6164 495.468C30.041 495.292 30.4268 495.034 30.7519 494.709C31.0769 494.384 31.3347 493.998 31.5106 493.574C31.6864 493.149 31.777 492.694 31.777 492.234V484.234ZM31.777 500.234C31.777 499.775 31.6864 499.32 31.5106 498.895C31.3347 498.47 31.0769 498.085 30.7519 497.759C30.4268 497.434 30.041 497.177 29.6164 497.001C29.1917 496.825 28.7366 496.734 28.277 496.734H20.277C19.3487 496.734 18.4585 497.103 17.8021 497.759C17.1457 498.416 16.777 499.306 16.777 500.234V508.234C16.777 509.163 17.1457 510.053 17.8021 510.709C18.4585 511.366 19.3487 511.734 20.277 511.734H28.277C28.7366 511.734 29.1917 511.644 29.6164 511.468C30.041 511.292 30.4268 511.034 30.7519 510.709C31.0769 510.384 31.3347 509.998 31.5106 509.574C31.6864 509.149 31.777 508.694 31.777 508.234V500.234ZM47.777 420.234C47.777 419.306 47.4082 418.416 46.7519 417.759C46.0955 417.103 45.2052 416.734 44.277 416.734H36.277C35.3487 416.734 34.4585 417.103 33.8021 417.759C33.1457 418.416 32.777 419.306 32.777 420.234V428.234C32.777 429.163 33.1457 430.053 33.8021 430.709C34.4585 431.366 35.3487 431.734 36.277 431.734H44.277C45.2052 431.734 46.0955 431.366 46.7519 430.709C47.4082 430.053 47.777 429.163 47.777 428.234V420.234ZM47.777 436.234C47.777 435.306 47.4082 434.416 46.7519 433.759C46.0955 433.103 45.2052 432.734 44.277 432.734H36.277C35.3487 432.734 34.4585 433.103 33.8021 433.759C33.1457 434.416 32.777 435.306 32.777 436.234V444.234C32.777 445.163 33.1457 446.053 33.8021 446.709C34.4585 447.366 35.3487 447.734 36.277 447.734H44.277C45.2052 447.734 46.0955 447.366 46.7519 446.709C47.4082 446.053 47.777 445.163 47.777 444.234V436.234ZM47.777 484.234C47.777 483.306 47.4082 482.416 46.7519 481.759C46.0955 481.103 45.2052 480.734 44.277 480.734H36.277C35.3487 480.734 34.4585 481.103 33.8021 481.759C33.1457 482.416 32.777 483.306 32.777 484.234V492.234C32.777 493.163 33.1457 494.053 33.8021 494.709C34.4585 495.366 35.3487 495.734 36.277 495.734H44.277C45.2052 495.734 46.0955 495.366 46.7519 494.709C47.4082 494.053 47.777 493.163 47.777 492.234V484.234ZM47.777 500.234C47.777 499.306 47.4082 498.416 46.7519 497.759C46.0955 497.103 45.2052 496.734 44.277 496.734H36.277C35.3487 496.734 34.4585 497.103 33.8021 497.759C33.1457 498.416 32.777 499.306 32.777 500.234V508.234C32.777 509.163 33.1457 510.053 33.8021 510.709C34.4585 511.366 35.3487 511.734 36.277 511.734H44.277C45.2052 511.734 46.0955 511.366 46.7519 510.709C47.4082 510.053 47.777 509.163 47.777 508.234V500.234ZM47.777 516.234C47.777 515.306 47.4082 514.416 46.7519 513.76C46.0955 513.103 45.2052 512.734 44.277 512.734H36.277C35.3487 512.734 34.4585 513.103 33.8021 513.76C33.1457 514.416 32.777 515.306 32.777 516.234V524.234C32.777 525.163 33.1457 526.053 33.8021 526.709C34.4585 527.366 35.3487 527.734 36.277 527.734H44.277C45.2052 527.734 46.0955 527.366 46.7519 526.709C47.4082 526.053 47.777 525.163 47.777 524.234V516.234ZM47.777 532.234C47.777 531.306 47.4082 530.416 46.7519 529.76C46.0955 529.103 45.2052 528.734 44.277 528.734H36.277C35.3487 528.734 34.4585 529.103 33.8021 529.76C33.1457 530.416 32.777 531.306 32.777 532.234V540.234C32.777 541.163 33.1457 542.053 33.8021 542.709C34.4585 543.366 35.3487 543.734 36.277 543.734H44.277C45.2052 543.734 46.0955 543.366 46.7519 542.709C47.4082 542.053 47.777 541.163 47.777 540.234V532.234ZM63.777 420.234C63.777 419.306 63.4082 418.416 62.7519 417.759C62.0955 417.103 61.2052 416.734 60.277 416.734H52.277C51.3487 416.734 50.4585 417.103 49.8021 417.759C49.1457 418.416 48.777 419.306 48.777 420.234V428.234C48.777 429.163 49.1457 430.053 49.8021 430.709C50.4585 431.366 51.3487 431.734 52.277 431.734H60.277C61.2052 431.734 62.0955 431.366 62.7519 430.709C63.4082 430.053 63.777 429.163 63.777 428.234V420.234ZM63.777 436.234C63.777 435.306 63.4082 434.416 62.7519 433.759C62.0955 433.103 61.2052 432.734 60.277 432.734H52.277C51.3487 432.734 50.4585 433.103 49.8021 433.759C49.1457 434.416 48.777 435.306 48.777 436.234V444.234C48.777 445.163 49.1457 446.053 49.8021 446.709C50.4585 447.366 51.3487 447.734 52.277 447.734H60.277C61.2052 447.734 62.0955 447.366 62.7519 446.709C63.4082 446.053 63.777 445.163 63.777 444.234V436.234ZM63.777 484.234C63.777 483.306 63.4082 482.416 62.7519 481.759C62.0955 481.103 61.2052 480.734 60.277 480.734H52.277C51.3487 480.734 50.4585 481.103 49.8021 481.759C49.1457 482.416 48.777 483.306 48.777 484.234V492.234C48.777 493.163 49.1457 494.053 49.8021 494.709C50.4585 495.366 51.3487 495.734 52.277 495.734H60.277C61.2052 495.734 62.0955 495.366 62.7519 494.709C63.4082 494.053 63.777 493.163 63.777 492.234V484.234ZM63.777 500.234C63.777 499.306 63.4082 498.416 62.7519 497.759C62.0955 497.103 61.2052 496.734 60.277 496.734H52.277C51.3487 496.734 50.4585 497.103 49.8021 497.759C49.1457 498.416 48.777 499.306 48.777 500.234V508.234C48.777 509.163 49.1457 510.053 49.8021 510.709C50.4585 511.366 51.3487 511.734 52.277 511.734H60.277C61.2052 511.734 62.0955 511.366 62.7519 510.709C63.4082 510.053 63.777 509.163 63.777 508.234V500.234ZM63.777 516.234C63.777 515.306 63.4082 514.416 62.7519 513.76C62.0955 513.103 61.2052 512.734 60.277 512.734H52.277C51.3487 512.734 50.4585 513.103 49.8021 513.76C49.1457 514.416 48.777 515.306 48.777 516.234V524.234C48.777 525.163 49.1457 526.053 49.8021 526.709C50.4585 527.366 51.3487 527.734 52.277 527.734H60.277C61.2052 527.734 62.0955 527.366 62.7519 526.709C63.4082 526.053 63.777 525.163 63.777 524.234V516.234ZM63.777 532.234C63.777 531.306 63.4082 530.416 62.7519 529.76C62.0955 529.103 61.2052 528.734 60.277 528.734H52.277C51.3487 528.734 50.4585 529.103 49.8021 529.76C49.1457 530.416 48.777 531.306 48.777 532.234V540.234C48.777 541.163 49.1457 542.053 49.8021 542.709C50.4585 543.366 51.3487 543.734 52.277 543.734H60.277C61.2052 543.734 62.0955 543.366 62.7519 542.709C63.4082 542.053 63.777 541.163 63.777 540.234V532.234ZM79.777 356.234C79.777 355.306 79.4082 354.416 78.7519 353.759C78.0955 353.103 77.2052 352.734 76.277 352.734H68.277C67.3487 352.734 66.4585 353.103 65.8021 353.759C65.1457 354.416 64.777 355.306 64.777 356.234V364.234C64.777 365.163 65.1457 366.053 65.8021 366.709C66.4585 367.366 67.3487 367.734 68.277 367.734H76.277C77.2052 367.734 78.0955 367.366 78.7519 366.709C79.4082 366.053 79.777 365.163 79.777 364.234V356.234ZM79.777 372.234C79.777 371.306 79.4082 370.416 78.7519 369.759C78.0955 369.103 77.2052 368.734 76.277 368.734H68.277C67.3487 368.734 66.4585 369.103 65.8021 369.759C65.1457 370.416 64.777 371.306 64.777 372.234V380.234C64.777 381.163 65.1457 382.053 65.8021 382.709C66.4585 383.366 67.3487 383.734 68.277 383.734H76.277C77.2052 383.734 78.0955 383.366 78.7519 382.709C79.4082 382.053 79.777 381.163 79.777 380.234V372.234ZM79.777 388.234C79.777 387.306 79.4082 386.416 78.7519 385.759C78.0955 385.103 77.2052 384.734 76.277 384.734H68.277C67.3487 384.734 66.4585 385.103 65.8021 385.759C65.1457 386.416 64.777 387.306 64.777 388.234V396.234C64.777 397.163 65.1457 398.053 65.8021 398.709C66.4585 399.366 67.3487 399.734 68.277 399.734H76.277C77.2052 399.734 78.0955 399.366 78.7519 398.709C79.4082 398.053 79.777 397.163 79.777 396.234V388.234ZM79.777 404.234C79.777 403.306 79.4082 402.416 78.7519 401.759C78.0955 401.103 77.2052 400.734 76.277 400.734H68.277C67.3487 400.734 66.4585 401.103 65.8021 401.759C65.1457 402.416 64.777 403.306 64.777 404.234V412.234C64.777 413.163 65.1457 414.053 65.8021 414.709C66.4585 415.366 67.3487 415.734 68.277 415.734H76.277C77.2052 415.734 78.0955 415.366 78.7519 414.709C79.4082 414.053 79.777 413.163 79.777 412.234V404.234ZM79.777 452.234C79.777 451.306 79.4082 450.416 78.7519 449.759C78.0955 449.103 77.2052 448.734 76.277 448.734H68.277C67.3487 448.734 66.4585 449.103 65.8021 449.759C65.1457 450.416 64.777 451.306 64.777 452.234V460.234C64.777 461.163 65.1457 462.053 65.8021 462.709C66.4585 463.366 67.3487 463.734 68.277 463.734H76.277C77.2052 463.734 78.0955 463.366 78.7519 462.709C79.4082 462.053 79.777 461.163 79.777 460.234V452.234ZM79.777 468.234C79.777 467.306 79.4082 466.416 78.7519 465.759C78.0955 465.103 77.2052 464.734 76.277 464.734H68.277C67.3487 464.734 66.4585 465.103 65.8021 465.759C65.1457 466.416 64.777 467.306 64.777 468.234V476.234C64.777 477.163 65.1457 478.053 65.8021 478.709C66.4585 479.366 67.3487 479.734 68.277 479.734H76.277C77.2052 479.734 78.0955 479.366 78.7519 478.709C79.4082 478.053 79.777 477.163 79.777 476.234V468.234ZM95.777 356.234C95.777 355.306 95.4082 354.416 94.7519 353.759C94.0955 353.103 93.2052 352.734 92.277 352.734H84.277C83.3487 352.734 82.4585 353.103 81.8021 353.759C81.1457 354.416 80.777 355.306 80.777 356.234V364.234C80.777 365.163 81.1457 366.053 81.8021 366.709C82.4585 367.366 83.3487 367.734 84.277 367.734H92.277C93.2052 367.734 94.0955 367.366 94.7519 366.709C95.4082 366.053 95.777 365.163 95.777 364.234V356.234ZM95.777 372.234C95.777 371.306 95.4082 370.416 94.7519 369.759C94.0955 369.103 93.2052 368.734 92.277 368.734H84.277C83.3487 368.734 82.4585 369.103 81.8021 369.759C81.1457 370.416 80.777 371.306 80.777 372.234V380.234C80.777 381.163 81.1457 382.053 81.8021 382.709C82.4585 383.366 83.3487 383.734 84.277 383.734H92.277C93.2052 383.734 94.0955 383.366 94.7519 382.709C95.4082 382.053 95.777 381.163 95.777 380.234V372.234ZM95.777 388.234C95.777 387.306 95.4082 386.416 94.7519 385.759C94.0955 385.103 93.2052 384.734 92.277 384.734H84.277C83.3487 384.734 82.4585 385.103 81.8021 385.759C81.1457 386.416 80.777 387.306 80.777 388.234V396.234C80.777 397.163 81.1457 398.053 81.8021 398.709C82.4585 399.366 83.3487 399.734 84.277 399.734H92.277C93.2052 399.734 94.0955 399.366 94.7519 398.709C95.4082 398.053 95.777 397.163 95.777 396.234V388.234ZM95.777 404.234C95.777 403.306 95.4082 402.416 94.7519 401.759C94.0955 401.103 93.2052 400.734 92.277 400.734H84.277C83.3487 400.734 82.4585 401.103 81.8021 401.759C81.1457 402.416 80.777 403.306 80.777 404.234V412.234C80.777 413.163 81.1457 414.053 81.8021 414.709C82.4585 415.366 83.3487 415.734 84.277 415.734H92.277C93.2052 415.734 94.0955 415.366 94.7519 414.709C95.4082 414.053 95.777 413.163 95.777 412.234V404.234ZM95.777 452.234C95.777 451.306 95.4082 450.416 94.7519 449.759C94.0955 449.103 93.2052 448.734 92.277 448.734H84.277C83.3487 448.734 82.4585 449.103 81.8021 449.759C81.1457 450.416 80.777 451.306 80.777 452.234V460.234C80.777 461.163 81.1457 462.053 81.8021 462.709C82.4585 463.366 83.3487 463.734 84.277 463.734H92.277C93.2052 463.734 94.0955 463.366 94.7519 462.709C95.4082 462.053 95.777 461.163 95.777 460.234V452.234ZM95.777 468.234C95.777 467.306 95.4082 466.416 94.7519 465.759C94.0955 465.103 93.2052 464.734 92.277 464.734H84.277C83.3487 464.734 82.4585 465.103 81.8021 465.759C81.1457 466.416 80.777 467.306 80.777 468.234V476.234C80.777 477.163 81.1457 478.053 81.8021 478.709C82.4585 479.366 83.3487 479.734 84.277 479.734H92.277C93.2052 479.734 94.0955 479.366 94.7519 478.709C95.4082 478.053 95.777 477.163 95.777 476.234V468.234ZM111.777 356.234C111.777 355.306 111.408 354.416 110.752 353.759C110.095 353.103 109.205 352.734 108.277 352.734H100.277C99.3487 352.734 98.4585 353.103 97.8021 353.759C97.1457 354.416 96.777 355.306 96.777 356.234V364.234C96.777 365.163 97.1457 366.053 97.8021 366.709C98.4585 367.366 99.3487 367.734 100.277 367.734H108.277C109.205 367.734 110.095 367.366 110.752 366.709C111.408 366.053 111.777 365.163 111.777 364.234V356.234ZM111.777 372.234C111.777 371.306 111.408 370.416 110.752 369.759C110.095 369.103 109.205 368.734 108.277 368.734H100.277C99.3487 368.734 98.4585 369.103 97.8021 369.759C97.1457 370.416 96.777 371.306 96.777 372.234V380.234C96.777 381.163 97.1457 382.053 97.8021 382.709C98.4585 383.366 99.3487 383.734 100.277 383.734H108.277C109.205 383.734 110.095 383.366 110.752 382.709C111.408 382.053 111.777 381.163 111.777 380.234V372.234ZM111.777 388.234C111.777 387.306 111.408 386.416 110.752 385.759C110.095 385.103 109.205 384.734 108.277 384.734H100.277C99.3487 384.734 98.4585 385.103 97.8021 385.759C97.1457 386.416 96.777 387.306 96.777 388.234V396.234C96.777 397.163 97.1457 398.053 97.8021 398.709C98.4585 399.366 99.3487 399.734 100.277 399.734H108.277C109.205 399.734 110.095 399.366 110.752 398.709C111.408 398.053 111.777 397.163 111.777 396.234V388.234ZM111.777 404.234C111.777 403.306 111.408 402.416 110.752 401.759C110.095 401.103 109.205 400.734 108.277 400.734H100.277C99.3487 400.734 98.4585 401.103 97.8021 401.759C97.1457 402.416 96.777 403.306 96.777 404.234V412.234C96.777 413.163 97.1457 414.053 97.8021 414.709C98.4585 415.366 99.3487 415.734 100.277 415.734H108.277C109.205 415.734 110.095 415.366 110.752 414.709C111.408 414.053 111.777 413.163 111.777 412.234V404.234ZM111.777 420.234C111.777 419.306 111.408 418.416 110.752 417.759C110.095 417.103 109.205 416.734 108.277 416.734H100.277C99.3487 416.734 98.4585 417.103 97.8021 417.759C97.1457 418.416 96.777 419.306 96.777 420.234V428.234C96.777 429.163 97.1457 430.053 97.8021 430.709C98.4585 431.366 99.3487 431.734 100.277 431.734H108.277C109.205 431.734 110.095 431.366 110.752 430.709C111.408 430.053 111.777 429.163 111.777 428.234V420.234ZM111.777 436.234C111.777 435.306 111.408 434.416 110.752 433.759C110.095 433.103 109.205 432.734 108.277 432.734H100.277C99.3487 432.734 98.4585 433.103 97.8021 433.759C97.1457 434.416 96.777 435.306 96.777 436.234V444.234C96.777 445.163 97.1457 446.053 97.8021 446.709C98.4585 447.366 99.3487 447.734 100.277 447.734H108.277C109.205 447.734 110.095 447.366 110.752 446.709C111.408 446.053 111.777 445.163 111.777 444.234V436.234ZM127.777 356.234C127.777 355.306 127.408 354.416 126.752 353.759C126.095 353.103 125.205 352.734 124.277 352.734H116.277C115.349 352.734 114.458 353.103 113.802 353.759C113.146 354.416 112.777 355.306 112.777 356.234V364.234C112.777 365.163 113.146 366.053 113.802 366.709C114.458 367.366 115.349 367.734 116.277 367.734H124.277C125.205 367.734 126.095 367.366 126.752 366.709C127.408 366.053 127.777 365.163 127.777 364.234V356.234ZM127.777 372.234C127.777 371.306 127.408 370.416 126.752 369.759C126.095 369.103 125.205 368.734 124.277 368.734H116.277C115.349 368.734 114.458 369.103 113.802 369.759C113.146 370.416 112.777 371.306 112.777 372.234V380.234C112.777 381.163 113.146 382.053 113.802 382.709C114.458 383.366 115.349 383.734 116.277 383.734H124.277C125.205 383.734 126.095 383.366 126.752 382.709C127.408 382.053 127.777 381.163 127.777 380.234V372.234ZM127.777 388.234C127.777 387.306 127.408 386.416 126.752 385.759C126.095 385.103 125.205 384.734 124.277 384.734H116.277C115.349 384.734 114.458 385.103 113.802 385.759C113.146 386.416 112.777 387.306 112.777 388.234V396.234C112.777 397.163 113.146 398.053 113.802 398.709C114.458 399.366 115.349 399.734 116.277 399.734H124.277C125.205 399.734 126.095 399.366 126.752 398.709C127.408 398.053 127.777 397.163 127.777 396.234V388.234ZM127.777 404.234C127.777 403.306 127.408 402.416 126.752 401.759C126.095 401.103 125.205 400.734 124.277 400.734H116.277C115.349 400.734 114.458 401.103 113.802 401.759C113.146 402.416 112.777 403.306 112.777 404.234V412.234C112.777 413.163 113.146 414.053 113.802 414.709C114.458 415.366 115.349 415.734 116.277 415.734H124.277C125.205 415.734 126.095 415.366 126.752 414.709C127.408 414.053 127.777 413.163 127.777 412.234V404.234ZM127.777 420.234C127.777 419.306 127.408 418.416 126.752 417.759C126.095 417.103 125.205 416.734 124.277 416.734H116.277C115.349 416.734 114.458 417.103 113.802 417.759C113.146 418.416 112.777 419.306 112.777 420.234V428.234C112.777 429.163 113.146 430.053 113.802 430.709C114.458 431.366 115.349 431.734 116.277 431.734H124.277C125.205 431.734 126.095 431.366 126.752 430.709C127.408 430.053 127.777 429.163 127.777 428.234V420.234ZM127.777 436.234C127.777 435.306 127.408 434.416 126.752 433.759C126.095 433.103 125.205 432.734 124.277 432.734H116.277C115.349 432.734 114.458 433.103 113.802 433.759C113.146 434.416 112.777 435.306 112.777 436.234V444.234C112.777 445.163 113.146 446.053 113.802 446.709C114.458 447.366 115.349 447.734 116.277 447.734H124.277C125.205 447.734 126.095 447.366 126.752 446.709C127.408 446.053 127.777 445.163 127.777 444.234V436.234ZM143.777 356.234C143.777 355.306 143.408 354.416 142.752 353.759C142.095 353.103 141.205 352.734 140.277 352.734H132.277C131.349 352.734 130.458 353.103 129.802 353.759C129.146 354.416 128.777 355.306 128.777 356.234V364.234C128.777 365.163 129.146 366.053 129.802 366.709C130.458 367.366 131.349 367.734 132.277 367.734H140.277C141.205 367.734 142.095 367.366 142.752 366.709C143.408 366.053 143.777 365.163 143.777 364.234V356.234ZM143.777 372.234C143.777 371.306 143.408 370.416 142.752 369.759C142.095 369.103 141.205 368.734 140.277 368.734H132.277C131.349 368.734 130.458 369.103 129.802 369.759C129.146 370.416 128.777 371.306 128.777 372.234V380.234C128.777 381.163 129.146 382.053 129.802 382.709C130.458 383.366 131.349 383.734 132.277 383.734H140.277C141.205 383.734 142.095 383.366 142.752 382.709C143.408 382.053 143.777 381.163 143.777 380.234V372.234ZM143.777 324.234C143.777 323.306 143.408 322.416 142.752 321.759C142.095 321.103 141.205 320.734 140.277 320.734H132.277C131.349 320.734 130.458 321.103 129.802 321.759C129.146 322.416 128.777 323.306 128.777 324.234V332.234C128.777 333.163 129.146 334.053 129.802 334.709C130.458 335.366 131.349 335.734 132.277 335.734H140.277C141.205 335.734 142.095 335.366 142.752 334.709C143.408 334.053 143.777 333.163 143.777 332.234V324.234ZM143.777 340.234C143.777 339.306 143.408 338.416 142.752 337.759C142.095 337.103 141.205 336.734 140.277 336.734H132.277C131.349 336.734 130.458 337.103 129.802 337.759C129.146 338.416 128.777 339.306 128.777 340.234V348.234C128.777 349.163 129.146 350.053 129.802 350.709C130.458 351.366 131.349 351.734 132.277 351.734H140.277C141.205 351.734 142.095 351.366 142.752 350.709C143.408 350.053 143.777 349.163 143.777 348.234V340.234ZM143.777 388.234C143.777 387.306 143.408 386.416 142.752 385.759C142.095 385.103 141.205 384.734 140.277 384.734H132.277C131.349 384.734 130.458 385.103 129.802 385.759C129.146 386.416 128.777 387.306 128.777 388.234V396.234C128.777 397.163 129.146 398.053 129.802 398.709C130.458 399.366 131.349 399.734 132.277 399.734H140.277C141.205 399.734 142.095 399.366 142.752 398.709C143.408 398.053 143.777 397.163 143.777 396.234V388.234ZM143.777 404.234C143.777 403.306 143.408 402.416 142.752 401.759C142.095 401.103 141.205 400.734 140.277 400.734H132.277C131.349 400.734 130.458 401.103 129.802 401.759C129.146 402.416 128.777 403.306 128.777 404.234V412.234C128.777 413.163 129.146 414.053 129.802 414.709C130.458 415.366 131.349 415.734 132.277 415.734H140.277C141.205 415.734 142.095 415.366 142.752 414.709C143.408 414.053 143.777 413.163 143.777 412.234V404.234ZM159.777 356.234C159.777 355.306 159.408 354.416 158.752 353.759C158.095 353.103 157.205 352.734 156.277 352.734H148.277C147.349 352.734 146.458 353.103 145.802 353.759C145.146 354.416 144.777 355.306 144.777 356.234V364.234C144.777 365.163 145.146 366.053 145.802 366.709C146.458 367.366 147.349 367.734 148.277 367.734H156.277C157.205 367.734 158.095 367.366 158.752 366.709C159.408 366.053 159.777 365.163 159.777 364.234V356.234ZM159.777 372.234C159.777 371.306 159.408 370.416 158.752 369.759C158.095 369.103 157.205 368.734 156.277 368.734H148.277C147.349 368.734 146.458 369.103 145.802 369.759C145.146 370.416 144.777 371.306 144.777 372.234V380.234C144.777 381.163 145.146 382.053 145.802 382.709C146.458 383.366 147.349 383.734 148.277 383.734H156.277C157.205 383.734 158.095 383.366 158.752 382.709C159.408 382.053 159.777 381.163 159.777 380.234V372.234ZM143.777 452.234C143.777 451.306 143.408 450.416 142.752 449.759C142.095 449.103 141.205 448.734 140.277 448.734H132.277C131.349 448.734 130.458 449.103 129.802 449.759C129.146 450.416 128.777 451.306 128.777 452.234V460.234C128.777 461.163 129.146 462.053 129.802 462.709C130.458 463.366 131.349 463.734 132.277 463.734H140.277C141.205 463.734 142.095 463.366 142.752 462.709C143.408 462.053 143.777 461.163 143.777 460.234V452.234ZM143.777 468.234C143.777 467.306 143.408 466.416 142.752 465.759C142.095 465.103 141.205 464.734 140.277 464.734H132.277C131.349 464.734 130.458 465.103 129.802 465.759C129.146 466.416 128.777 467.306 128.777 468.234V476.234C128.777 477.163 129.146 478.053 129.802 478.709C130.458 479.366 131.349 479.734 132.277 479.734H140.277C141.205 479.734 142.095 479.366 142.752 478.709C143.408 478.053 143.777 477.163 143.777 476.234V468.234ZM159.777 324.234C159.777 323.306 159.408 322.416 158.752 321.759C158.095 321.103 157.205 320.734 156.277 320.734H148.277C147.349 320.734 146.458 321.103 145.802 321.759C145.146 322.416 144.777 323.306 144.777 324.234V332.234C144.777 333.163 145.146 334.053 145.802 334.709C146.458 335.366 147.349 335.734 148.277 335.734H156.277C157.205 335.734 158.095 335.366 158.752 334.709C159.408 334.053 159.777 333.163 159.777 332.234V324.234ZM159.777 340.234C159.777 339.306 159.408 338.416 158.752 337.759C158.095 337.103 157.205 336.734 156.277 336.734H148.277C147.349 336.734 146.458 337.103 145.802 337.759C145.146 338.416 144.777 339.306 144.777 340.234V348.234C144.777 349.163 145.146 350.053 145.802 350.709C146.458 351.366 147.349 351.734 148.277 351.734H156.277C157.205 351.734 158.095 351.366 158.752 350.709C159.408 350.053 159.777 349.163 159.777 348.234V340.234ZM159.777 388.234C159.777 387.306 159.408 386.416 158.752 385.759C158.095 385.103 157.205 384.734 156.277 384.734H148.277C147.349 384.734 146.458 385.103 145.802 385.759C145.146 386.416 144.777 387.306 144.777 388.234V396.234C144.777 397.163 145.146 398.053 145.802 398.709C146.458 399.366 147.349 399.734 148.277 399.734H156.277C157.205 399.734 158.095 399.366 158.752 398.709C159.408 398.053 159.777 397.163 159.777 396.234V388.234ZM159.777 404.234C159.777 403.306 159.408 402.416 158.752 401.759C158.095 401.103 157.205 400.734 156.277 400.734H148.277C147.349 400.734 146.458 401.103 145.802 401.759C145.146 402.416 144.777 403.306 144.777 404.234V412.234C144.777 413.163 145.146 414.053 145.802 414.709C146.458 415.366 147.349 415.734 148.277 415.734H156.277C157.205 415.734 158.095 415.366 158.752 414.709C159.408 414.053 159.777 413.163 159.777 412.234V404.234ZM159.777 452.234C159.777 451.306 159.408 450.416 158.752 449.759C158.095 449.103 157.205 448.734 156.277 448.734H148.277C147.349 448.734 146.458 449.103 145.802 449.759C145.146 450.416 144.777 451.306 144.777 452.234V460.234C144.777 461.163 145.146 462.053 145.802 462.709C146.458 463.366 147.349 463.734 148.277 463.734H156.277C157.205 463.734 158.095 463.366 158.752 462.709C159.408 462.053 159.777 461.163 159.777 460.234V452.234ZM159.777 468.234C159.777 467.306 159.408 466.416 158.752 465.759C158.095 465.103 157.205 464.734 156.277 464.734H148.277C147.349 464.734 146.458 465.103 145.802 465.759C145.146 466.416 144.777 467.306 144.777 468.234V476.234C144.777 477.163 145.146 478.053 145.802 478.709C146.458 479.366 147.349 479.734 148.277 479.734H156.277C157.205 479.734 158.095 479.366 158.752 478.709C159.408 478.053 159.777 477.163 159.777 476.234V468.234ZM175.777 388.234C175.777 387.306 175.408 386.416 174.752 385.759C174.095 385.103 173.205 384.734 172.277 384.734H164.277C163.349 384.734 162.458 385.103 161.802 385.759C161.146 386.416 160.777 387.306 160.777 388.234V396.234C160.777 397.163 161.146 398.053 161.802 398.709C162.458 399.366 163.349 399.734 164.277 399.734H172.277C173.205 399.734 174.095 399.366 174.752 398.709C175.408 398.053 175.777 397.163 175.777 396.234V388.234ZM175.777 404.234C175.777 403.306 175.408 402.416 174.752 401.759C174.095 401.103 173.205 400.734 172.277 400.734H164.277C163.349 400.734 162.458 401.103 161.802 401.759C161.146 402.416 160.777 403.306 160.777 404.234V412.234C160.777 413.163 161.146 414.053 161.802 414.709C162.458 415.366 163.349 415.734 164.277 415.734H172.277C173.205 415.734 174.095 415.366 174.752 414.709C175.408 414.053 175.777 413.163 175.777 412.234V404.234ZM191.777 388.234C191.777 387.306 191.408 386.416 190.752 385.759C190.095 385.103 189.205 384.734 188.277 384.734H180.277C179.349 384.734 178.458 385.103 177.802 385.759C177.146 386.416 176.777 387.306 176.777 388.234V396.234C176.777 397.163 177.146 398.053 177.802 398.709C178.458 399.366 179.349 399.734 180.277 399.734H188.277C189.205 399.734 190.095 399.366 190.752 398.709C191.408 398.053 191.777 397.163 191.777 396.234V388.234ZM191.777 404.234C191.777 403.306 191.408 402.416 190.752 401.759C190.095 401.103 189.205 400.734 188.277 400.734H180.277C179.349 400.734 178.458 401.103 177.802 401.759C177.146 402.416 176.777 403.306 176.777 404.234V412.234C176.777 413.163 177.146 414.053 177.802 414.709C178.458 415.366 179.349 415.734 180.277 415.734H188.277C189.205 415.734 190.095 415.366 190.752 414.709C191.408 414.053 191.777 413.163 191.777 412.234V404.234ZM16.282 370.185C15.82 369.383 15.143 368.686 14.328 368.238C15.1515 367.786 15.8292 367.109 16.282 366.285C16.725 367.077 17.442 367.781 18.228 368.238C17.422 368.709 16.725 369.365 16.282 370.185ZM16.282 466.185C15.82 465.383 15.143 464.686 14.328 464.238C15.1515 463.786 15.8292 463.109 16.282 462.285C16.725 463.077 17.442 463.781 18.228 464.238C17.422 464.709 16.725 465.365 16.282 466.185ZM16.282 482.185C15.82 481.383 15.143 480.686 14.328 480.238C15.1515 479.786 15.8292 479.109 16.282 478.285C16.725 479.077 17.442 479.781 18.228 480.238C17.422 480.709 16.725 481.365 16.282 482.185ZM16.282 498.185C15.82 497.383 15.143 496.686 14.328 496.238C15.1515 495.786 15.8292 495.109 16.282 494.285C16.725 495.077 17.442 495.781 18.228 496.238C17.422 496.709 16.725 497.365 16.282 498.185ZM32.282 450.185C31.82 449.383 31.143 448.686 30.328 448.238C31.1515 447.786 31.8292 447.109 32.282 446.285C32.725 447.077 33.442 447.781 34.228 448.238C33.422 448.709 32.725 449.365 32.282 450.185ZM32.282 482.185C31.82 481.383 31.143 480.686 30.328 480.238C31.1515 479.786 31.8292 479.109 32.282 478.285C32.725 479.077 33.442 479.781 34.228 480.238C33.422 480.709 32.725 481.365 32.282 482.185ZM32.282 498.185C31.82 497.383 31.143 496.686 30.328 496.238C31.1515 495.786 31.8292 495.109 32.282 494.285C32.725 495.077 33.442 495.781 34.228 496.238C33.422 496.709 32.725 497.365 32.282 498.185ZM32.282 514.185C31.82 513.383 31.143 512.686 30.328 512.238C31.1515 511.786 31.8292 511.109 32.282 510.285C32.725 511.077 33.442 511.781 34.228 512.238C33.422 512.709 32.725 513.365 32.282 514.185ZM48.282 434.185C47.82 433.383 47.143 432.686 46.328 432.238C47.1515 431.786 47.8292 431.109 48.282 430.285C48.725 431.077 49.442 431.781 50.228 432.238C49.422 432.709 48.725 433.365 48.282 434.185ZM48.282 498.185C47.82 497.383 47.143 496.686 46.328 496.238C47.1515 495.786 47.8292 495.109 48.282 494.285C48.725 495.077 49.442 495.781 50.228 496.238C49.422 496.709 48.725 497.365 48.282 498.185ZM48.282 514.185C47.82 513.383 47.143 512.686 46.328 512.238C47.1515 511.786 47.8292 511.109 48.282 510.285C48.725 511.077 49.442 511.781 50.228 512.238C49.422 512.709 48.725 513.365 48.282 514.185ZM48.282 530.185C47.82 529.383 47.143 528.686 46.328 528.238C47.1515 527.786 47.8292 527.109 48.282 526.285C48.725 527.077 49.442 527.781 50.228 528.238C49.422 528.708 48.725 529.365 48.282 530.185ZM64.282 418.185C63.82 417.383 63.143 416.686 62.328 416.238C63.1515 415.786 63.8292 415.109 64.282 414.285C64.725 415.077 65.442 415.781 66.228 416.238C65.423 416.709 64.725 417.365 64.282 418.185ZM64.282 450.185C63.82 449.383 63.143 448.686 62.328 448.238C63.1515 447.786 63.8292 447.109 64.282 446.285C64.725 447.077 65.442 447.781 66.228 448.238C65.423 448.709 64.725 449.365 64.282 450.185ZM64.282 482.185C63.82 481.383 63.143 480.686 62.328 480.238C63.1515 479.786 63.8292 479.109 64.282 478.285C64.725 479.077 65.442 479.781 66.228 480.238C65.423 480.709 64.725 481.365 64.282 482.185ZM80.282 370.185C79.82 369.383 79.143 368.686 78.328 368.238C79.1515 367.786 79.8292 367.109 80.282 366.285C80.725 367.077 81.442 367.781 82.228 368.238C81.423 368.709 80.725 369.365 80.282 370.185ZM80.282 386.185C79.82 385.383 79.143 384.686 78.328 384.238C79.1515 383.786 79.8292 383.109 80.282 382.285C80.725 383.077 81.442 383.781 82.228 384.238C81.423 384.709 80.725 385.365 80.282 386.185ZM80.282 402.185C79.82 401.383 79.143 400.686 78.328 400.238C79.1515 399.786 79.8292 399.109 80.282 398.285C80.725 399.077 81.442 399.781 82.228 400.238C81.423 400.709 80.725 401.365 80.282 402.185ZM80.282 466.185C79.82 465.383 79.143 464.686 78.328 464.238C79.1515 463.786 79.8292 463.109 80.282 462.285C80.725 463.077 81.442 463.781 82.228 464.238C81.423 464.709 80.725 465.365 80.282 466.185ZM96.282 370.185C95.82 369.383 95.143 368.686 94.328 368.238C95.1515 367.786 95.8292 367.109 96.282 366.285C96.725 367.077 97.442 367.781 98.228 368.238C97.423 368.709 96.725 369.365 96.282 370.185ZM96.282 386.185C95.82 385.383 95.143 384.686 94.328 384.238C95.1515 383.786 95.8292 383.109 96.282 382.285C96.725 383.077 97.442 383.781 98.228 384.238C97.423 384.709 96.725 385.365 96.282 386.185ZM96.282 402.185C95.82 401.383 95.143 400.686 94.328 400.238C95.1515 399.786 95.8292 399.109 96.282 398.285C96.725 399.077 97.442 399.781 98.228 400.238C97.423 400.709 96.725 401.365 96.282 402.185ZM96.282 418.185C95.82 417.383 95.143 416.686 94.328 416.238C95.1515 415.786 95.8292 415.109 96.282 414.285C96.725 415.077 97.442 415.781 98.228 416.238C97.423 416.709 96.725 417.365 96.282 418.185ZM96.282 450.185C95.82 449.383 95.143 448.686 94.328 448.238C95.1515 447.786 95.8292 447.109 96.282 446.285C96.725 447.077 97.442 447.781 98.228 448.238C97.423 448.709 96.725 449.365 96.282 450.185ZM112.282 370.185C111.82 369.383 111.143 368.686 110.328 368.238C111.152 367.786 111.829 367.109 112.282 366.285C112.725 367.077 113.443 367.781 114.228 368.238C113.423 368.708 112.725 369.365 112.282 370.185ZM112.282 386.185C111.82 385.383 111.143 384.686 110.328 384.238C111.152 383.786 111.829 383.109 112.282 382.285C112.725 383.077 113.443 383.781 114.228 384.238C113.423 384.708 112.725 385.365 112.282 386.185ZM112.282 402.185C111.82 401.383 111.143 400.686 110.328 400.238C111.152 399.786 111.829 399.109 112.282 398.285C112.725 399.077 113.443 399.781 114.228 400.238C113.423 400.708 112.725 401.365 112.282 402.185ZM112.282 418.185C111.82 417.383 111.143 416.686 110.328 416.238C111.152 415.786 111.829 415.109 112.282 414.285C112.725 415.077 113.443 415.781 114.228 416.238C113.423 416.708 112.725 417.365 112.282 418.185ZM112.282 434.185C111.82 433.383 111.143 432.686 110.328 432.238C111.152 431.786 111.829 431.109 112.282 430.285C112.725 431.077 113.443 431.781 114.228 432.238C113.423 432.708 112.725 433.365 112.282 434.185ZM128.282 370.185C127.82 369.383 127.143 368.686 126.328 368.238C127.152 367.786 127.829 367.109 128.282 366.285C128.725 367.077 129.443 367.781 130.228 368.238C129.423 368.708 128.725 369.365 128.282 370.185ZM144.282 370.185C143.82 369.383 143.143 368.686 142.328 368.238C143.152 367.786 143.829 367.109 144.282 366.285C144.725 367.077 145.443 367.781 146.228 368.238C145.423 368.708 144.725 369.365 144.282 370.185ZM128.282 386.185C127.82 385.383 127.143 384.686 126.328 384.238C127.152 383.786 127.829 383.109 128.282 382.285C128.725 383.077 129.443 383.781 130.228 384.238C129.423 384.708 128.725 385.365 128.282 386.185ZM128.282 402.185C127.82 401.383 127.143 400.686 126.328 400.238C127.152 399.786 127.829 399.109 128.282 398.285C128.725 399.077 129.443 399.781 130.228 400.238C129.423 400.708 128.725 401.365 128.282 402.185ZM128.282 418.185C127.82 417.383 127.143 416.686 126.328 416.238C127.152 415.786 127.829 415.109 128.282 414.285C128.725 415.077 129.443 415.781 130.228 416.238C129.423 416.708 128.725 417.365 128.282 418.185ZM128.282 450.185C127.82 449.383 127.143 448.686 126.328 448.238C127.152 447.786 127.829 447.109 128.282 446.285C128.725 447.077 129.443 447.781 130.228 448.238C129.423 448.708 128.725 449.365 128.282 450.185ZM144.282 338.185C143.82 337.383 143.143 336.686 142.328 336.238C143.152 335.786 143.829 335.109 144.282 334.285C144.725 335.077 145.443 335.781 146.228 336.238C145.423 336.708 144.725 337.365 144.282 338.185ZM160.278 322.185C159.816 321.383 159.139 320.686 158.324 320.238C159.148 319.786 159.825 319.109 160.278 318.285C160.721 319.077 161.439 319.781 162.224 320.238C161.419 320.708 160.721 321.365 160.278 322.185ZM144.282 386.185C143.82 385.383 143.143 384.686 142.328 384.238C143.152 383.786 143.829 383.109 144.282 382.285C144.725 383.077 145.443 383.781 146.228 384.238C145.423 384.708 144.725 385.365 144.282 386.185ZM144.282 402.185C143.82 401.383 143.143 400.686 142.328 400.238C143.152 399.786 143.829 399.109 144.282 398.285C144.725 399.077 145.443 399.781 146.228 400.238C145.423 400.708 144.725 401.365 144.282 402.185ZM144.282 466.185C143.82 465.383 143.143 464.686 142.328 464.238C143.152 463.786 143.829 463.109 144.282 462.285C144.725 463.077 145.443 463.781 146.228 464.238C145.423 464.709 144.725 465.365 144.282 466.185ZM160.282 386.185C159.82 385.383 159.143 384.686 158.328 384.238C159.152 383.786 159.829 383.109 160.282 382.285C160.725 383.077 161.443 383.781 162.228 384.238C161.423 384.708 160.725 385.365 160.282 386.185ZM160.282 402.185C159.82 401.383 159.143 400.686 158.328 400.238C159.152 399.786 159.829 399.109 160.282 398.285C160.725 399.077 161.443 399.781 162.228 400.238C161.423 400.708 160.725 401.365 160.282 402.185ZM176.282 402.185C175.82 401.383 175.143 400.686 174.328 400.238C175.152 399.786 175.829 399.109 176.282 398.285C176.725 399.077 177.443 399.781 178.228 400.238C177.423 400.708 176.725 401.365 176.282 402.185ZM220.277 143.734C221.205 143.734 222.095 143.366 222.752 142.709C223.408 142.053 223.777 141.163 223.777 140.234V132.234C223.777 131.306 223.408 130.416 222.752 129.76C222.095 129.103 221.205 128.734 220.277 128.734H212.277C211.349 128.734 210.458 129.103 209.802 129.76C209.146 130.416 208.777 131.306 208.777 132.234V140.234C208.777 141.163 209.146 142.053 209.802 142.709C210.458 143.366 211.349 143.734 212.277 143.734H220.277ZM204.277 143.734C205.205 143.734 206.095 143.366 206.752 142.709C207.408 142.053 207.777 141.163 207.777 140.234V132.234C207.777 131.306 207.408 130.416 206.752 129.76C206.095 129.103 205.205 128.734 204.277 128.734H196.277C195.349 128.734 194.458 129.103 193.802 129.76C193.146 130.416 192.777 131.306 192.777 132.234V140.234C192.777 141.163 193.146 142.053 193.802 142.709C194.458 143.366 195.349 143.734 196.277 143.734H204.277ZM188.277 143.734C189.205 143.734 190.095 143.366 190.752 142.709C191.408 142.053 191.777 141.163 191.777 140.234V132.234C191.777 131.306 191.408 130.416 190.752 129.76C190.095 129.103 189.205 128.734 188.277 128.734H180.277C179.349 128.734 178.458 129.103 177.802 129.76C177.146 130.416 176.777 131.306 176.777 132.234V140.234C176.777 141.163 177.146 142.053 177.802 142.709C178.458 143.366 179.349 143.734 180.277 143.734H188.277ZM172.277 143.734C173.205 143.734 174.095 143.366 174.752 142.709C175.408 142.053 175.777 141.163 175.777 140.234V132.234C175.777 131.306 175.408 130.416 174.752 129.76C174.095 129.103 173.205 128.734 172.277 128.734H164.277C163.349 128.734 162.458 129.103 161.802 129.76C161.146 130.416 160.777 131.306 160.777 132.234V140.234C160.777 141.163 161.146 142.053 161.802 142.709C162.458 143.366 163.349 143.734 164.277 143.734H172.277ZM124.277 143.734C125.205 143.734 126.095 143.366 126.752 142.709C127.408 142.053 127.777 141.163 127.777 140.234V132.234C127.777 131.306 127.408 130.416 126.752 129.76C126.095 129.103 125.205 128.734 124.277 128.734H116.277C115.349 128.734 114.458 129.103 113.802 129.76C113.146 130.416 112.777 131.306 112.777 132.234V140.234C112.777 141.163 113.146 142.053 113.802 142.709C114.458 143.366 115.349 143.734 116.277 143.734H124.277ZM108.277 143.734C109.205 143.734 110.095 143.366 110.752 142.709C111.408 142.053 111.777 141.163 111.777 140.234V132.234C111.777 131.306 111.408 130.416 110.752 129.76C110.095 129.103 109.205 128.734 108.277 128.734H100.277C99.3487 128.734 98.4585 129.103 97.8021 129.76C97.1457 130.416 96.777 131.306 96.777 132.234V140.234C96.777 141.163 97.1457 142.053 97.8021 142.709C98.4585 143.366 99.3487 143.734 100.277 143.734H108.277ZM92.277 143.734C93.2052 143.734 94.0955 143.366 94.7519 142.709C95.4082 142.053 95.777 141.163 95.777 140.234V132.234C95.777 131.306 95.4082 130.416 94.7519 129.76C94.0955 129.103 93.2052 128.734 92.277 128.734H84.277C83.3487 128.734 82.4585 129.103 81.8021 129.76C81.1457 130.416 80.777 131.306 80.777 132.234V140.234C80.777 141.163 81.1457 142.053 81.8021 142.709C82.4585 143.366 83.3487 143.734 84.277 143.734H92.277ZM76.277 143.734C77.2052 143.734 78.0955 143.366 78.7519 142.709C79.4082 142.053 79.777 141.163 79.777 140.234V132.234C79.777 131.306 79.4082 130.416 78.7519 129.76C78.0955 129.103 77.2052 128.734 76.277 128.734H68.277C67.3487 128.734 66.4585 129.103 65.8021 129.76C65.1457 130.416 64.777 131.306 64.777 132.234V140.234C64.777 141.163 65.1457 142.053 65.8021 142.709C66.4585 143.366 67.3487 143.734 68.277 143.734H76.277ZM175.777 36.2344C175.777 35.3061 175.408 34.4159 174.752 33.7595C174.095 33.1031 173.205 32.7344 172.277 32.7344H164.277C163.349 32.7344 162.458 33.1031 161.802 33.7595C161.146 34.4159 160.777 35.3061 160.777 36.2344V44.2344C160.777 45.1626 161.146 46.0529 161.802 46.7092C162.458 47.3656 163.349 47.7344 164.277 47.7344H172.277C173.205 47.7344 174.095 47.3656 174.752 46.7092C175.408 46.0529 175.777 45.1626 175.777 44.2344V36.2344ZM175.777 52.2344C175.777 51.3061 175.408 50.4159 174.752 49.7595C174.095 49.1031 173.205 48.7344 172.277 48.7344H164.277C163.349 48.7344 162.458 49.1031 161.802 49.7595C161.146 50.4159 160.777 51.3061 160.777 52.2344V60.2344C160.777 61.1626 161.146 62.0529 161.802 62.7092C162.458 63.3656 163.349 63.7344 164.277 63.7344H172.277C173.205 63.7344 174.095 63.3656 174.752 62.7092C175.408 62.0529 175.777 61.1626 175.777 60.2344V52.2344ZM124.277 159.734C125.205 159.734 126.095 159.366 126.752 158.709C127.408 158.053 127.777 157.163 127.777 156.234V148.234C127.777 147.306 127.408 146.416 126.752 145.76C126.095 145.103 125.205 144.734 124.277 144.734H116.277C115.349 144.734 114.458 145.103 113.802 145.76C113.146 146.416 112.777 147.306 112.777 148.234V156.234C112.777 157.163 113.146 158.053 113.802 158.709C114.458 159.366 115.349 159.734 116.277 159.734H124.277ZM108.277 159.734C109.205 159.734 110.095 159.366 110.752 158.709C111.408 158.053 111.777 157.163 111.777 156.234V148.234C111.777 147.306 111.408 146.416 110.752 145.76C110.095 145.103 109.205 144.734 108.277 144.734H100.277C99.3487 144.734 98.4585 145.103 97.8021 145.76C97.1457 146.416 96.777 147.306 96.777 148.234V156.234C96.777 157.163 97.1457 158.053 97.8021 158.709C98.4585 159.366 99.3487 159.734 100.277 159.734H108.277ZM92.277 159.734C93.2052 159.734 94.0955 159.366 94.7519 158.709C95.4082 158.053 95.777 157.163 95.777 156.234V148.234C95.777 147.306 95.4082 146.416 94.7519 145.76C94.0955 145.103 93.2052 144.734 92.277 144.734H84.277C83.3487 144.734 82.4585 145.103 81.8021 145.76C81.1457 146.416 80.777 147.306 80.777 148.234V156.234C80.777 157.163 81.1457 158.053 81.8021 158.709C82.4585 159.366 83.3487 159.734 84.277 159.734H92.277ZM76.277 159.734C77.2052 159.734 78.0955 159.366 78.7519 158.709C79.4082 158.053 79.777 157.163 79.777 156.234V148.234C79.777 147.306 79.4082 146.416 78.7519 145.76C78.0955 145.103 77.2052 144.734 76.277 144.734H68.277C67.3487 144.734 66.4585 145.103 65.8021 145.76C65.1457 146.416 64.777 147.306 64.777 148.234V156.234C64.777 157.163 65.1457 158.053 65.8021 158.709C66.4585 159.366 67.3487 159.734 68.277 159.734H76.277ZM156.277 175.734C157.205 175.734 158.095 175.366 158.752 174.709C159.408 174.053 159.777 173.163 159.777 172.234V164.234C159.777 163.306 159.408 162.416 158.752 161.76C158.095 161.103 157.205 160.734 156.277 160.734H148.277C147.349 160.734 146.458 161.103 145.802 161.76C145.146 162.416 144.777 163.306 144.777 164.234V172.234C144.777 173.163 145.146 174.053 145.802 174.709C146.458 175.366 147.349 175.734 148.277 175.734H156.277ZM140.277 175.734C141.205 175.734 142.095 175.366 142.752 174.709C143.408 174.053 143.777 173.163 143.777 172.234V164.234C143.777 163.306 143.408 162.416 142.752 161.76C142.095 161.103 141.205 160.734 140.277 160.734H132.277C131.349 160.734 130.458 161.103 129.802 161.76C129.146 162.416 128.777 163.306 128.777 164.234V172.234C128.777 173.163 129.146 174.053 129.802 174.709C130.458 175.366 131.349 175.734 132.277 175.734H140.277ZM92.277 175.734C93.2052 175.734 94.0955 175.366 94.7519 174.709C95.4082 174.053 95.777 173.163 95.777 172.234V164.234C95.777 163.306 95.4082 162.416 94.7519 161.76C94.0955 161.103 93.2052 160.734 92.277 160.734H84.277C83.3487 160.734 82.4585 161.103 81.8021 161.76C81.1457 162.416 80.777 163.306 80.777 164.234V172.234C80.777 173.163 81.1457 174.053 81.8021 174.709C82.4585 175.366 83.3487 175.734 84.277 175.734H92.277ZM76.277 175.734C77.2052 175.734 78.0955 175.366 78.7519 174.709C79.4082 174.053 79.777 173.163 79.777 172.234V164.234C79.777 163.306 79.4082 162.416 78.7519 161.76C78.0955 161.103 77.2052 160.734 76.277 160.734H68.277C67.3487 160.734 66.4585 161.103 65.8021 161.76C65.1457 162.416 64.777 163.306 64.777 164.234V172.234C64.777 173.163 65.1457 174.053 65.8021 174.709C66.4585 175.366 67.3487 175.734 68.277 175.734H76.277ZM60.277 175.734C61.2052 175.734 62.0955 175.366 62.7519 174.709C63.4082 174.053 63.777 173.163 63.777 172.234V164.234C63.777 163.306 63.4082 162.416 62.7519 161.76C62.0955 161.103 61.2052 160.734 60.277 160.734H52.277C51.3487 160.734 50.4585 161.103 49.8021 161.76C49.1457 162.416 48.777 163.306 48.777 164.234V172.234C48.777 173.163 49.1457 174.053 49.8021 174.709C50.4585 175.366 51.3487 175.734 52.277 175.734H60.277ZM44.277 175.734C45.2052 175.734 46.0955 175.366 46.7519 174.709C47.4082 174.053 47.777 173.163 47.777 172.234V164.234C47.777 163.306 47.4082 162.416 46.7519 161.76C46.0955 161.103 45.2052 160.734 44.277 160.734H36.277C35.3487 160.734 34.4585 161.103 33.8021 161.76C33.1457 162.416 32.777 163.306 32.777 164.234V172.234C32.777 173.163 33.1457 174.053 33.8021 174.709C34.4585 175.366 35.3487 175.734 36.277 175.734H44.277ZM156.277 191.734C157.205 191.734 158.095 191.366 158.752 190.709C159.408 190.053 159.777 189.163 159.777 188.234V180.234C159.777 179.306 159.408 178.416 158.752 177.76C158.095 177.103 157.205 176.734 156.277 176.734H148.277C147.349 176.734 146.458 177.103 145.802 177.76C145.146 178.416 144.777 179.306 144.777 180.234V188.234C144.777 189.163 145.146 190.053 145.802 190.709C146.458 191.366 147.349 191.734 148.277 191.734H156.277ZM140.277 191.734C141.205 191.734 142.095 191.366 142.752 190.709C143.408 190.053 143.777 189.163 143.777 188.234V180.234C143.777 179.306 143.408 178.416 142.752 177.76C142.095 177.103 141.205 176.734 140.277 176.734H132.277C131.349 176.734 130.458 177.103 129.802 177.76C129.146 178.416 128.777 179.306 128.777 180.234V188.234C128.777 189.163 129.146 190.053 129.802 190.709C130.458 191.366 131.349 191.734 132.277 191.734H140.277ZM92.277 191.734C93.2052 191.734 94.0955 191.366 94.7519 190.709C95.4082 190.053 95.777 189.163 95.777 188.234V180.234C95.777 179.306 95.4082 178.416 94.7519 177.76C94.0955 177.103 93.2052 176.734 92.277 176.734H84.277C83.3487 176.734 82.4585 177.103 81.8021 177.76C81.1457 178.416 80.777 179.306 80.777 180.234V188.234C80.777 189.163 81.1457 190.053 81.8021 190.709C82.4585 191.366 83.3487 191.734 84.277 191.734H92.277ZM76.277 191.734C77.2052 191.734 78.0955 191.366 78.7519 190.709C79.4082 190.053 79.777 189.163 79.777 188.234V180.234C79.777 179.306 79.4082 178.416 78.7519 177.76C78.0955 177.103 77.2052 176.734 76.277 176.734H68.277C67.3487 176.734 66.4585 177.103 65.8021 177.76C65.1457 178.416 64.777 179.306 64.777 180.234V188.234C64.777 189.163 65.1457 190.053 65.8021 190.709C66.4585 191.366 67.3487 191.734 68.277 191.734H76.277ZM60.277 191.734C61.2052 191.734 62.0955 191.366 62.7519 190.709C63.4082 190.053 63.777 189.163 63.777 188.234V180.234C63.777 179.306 63.4082 178.416 62.7519 177.76C62.0955 177.103 61.2052 176.734 60.277 176.734H52.277C51.3487 176.734 50.4585 177.103 49.8021 177.76C49.1457 178.416 48.777 179.306 48.777 180.234V188.234C48.777 189.163 49.1457 190.053 49.8021 190.709C50.4585 191.366 51.3487 191.734 52.277 191.734H60.277ZM44.277 191.734C45.2052 191.734 46.0955 191.366 46.7519 190.709C47.4082 190.053 47.777 189.163 47.777 188.234V180.234C47.777 179.306 47.4082 178.416 46.7519 177.76C46.0955 177.103 45.2052 176.734 44.277 176.734H36.277C35.3487 176.734 34.4585 177.103 33.8021 177.76C33.1457 178.416 32.777 179.306 32.777 180.234V188.234C32.777 189.163 33.1457 190.053 33.8021 190.709C34.4585 191.366 35.3487 191.734 36.277 191.734H44.277ZM175.777 68.2344C175.777 67.3061 175.408 66.4159 174.752 65.7595C174.095 65.1031 173.205 64.7344 172.277 64.7344H164.277C163.349 64.7344 162.458 65.1031 161.802 65.7595C161.146 66.4159 160.777 67.3061 160.777 68.2344V76.2344C160.777 77.1626 161.146 78.0529 161.802 78.7093C162.458 79.3656 163.349 79.7344 164.277 79.7344H172.277C173.205 79.7344 174.095 79.3656 174.752 78.7093C175.408 78.0529 175.777 77.1626 175.777 76.2344V68.2344ZM175.777 84.2344C175.777 83.3061 175.408 82.4159 174.752 81.7595C174.095 81.1031 173.205 80.7344 172.277 80.7344H164.277C163.349 80.7344 162.458 81.1031 161.802 81.7595C161.146 82.4159 160.777 83.3061 160.777 84.2344V92.2344C160.777 93.1626 161.146 94.0529 161.802 94.7093C162.458 95.3656 163.349 95.7344 164.277 95.7344H172.277C173.205 95.7344 174.095 95.3656 174.752 94.7093C175.408 94.0529 175.777 93.1626 175.777 92.2344V84.2344ZM220.277 159.734C221.205 159.734 222.095 159.366 222.752 158.709C223.408 158.053 223.777 157.163 223.777 156.234V148.234C223.777 147.306 223.408 146.416 222.752 145.76C222.095 145.103 221.205 144.734 220.277 144.734H212.277C211.349 144.734 210.458 145.103 209.802 145.76C209.146 146.416 208.777 147.306 208.777 148.234V156.234C208.777 157.163 209.146 158.053 209.802 158.709C210.458 159.366 211.349 159.734 212.277 159.734H220.277ZM204.277 159.734C205.205 159.734 206.095 159.366 206.752 158.709C207.408 158.053 207.777 157.163 207.777 156.234V148.234C207.777 147.306 207.408 146.416 206.752 145.76C206.095 145.103 205.205 144.734 204.277 144.734H196.277C195.349 144.734 194.458 145.103 193.802 145.76C193.146 146.416 192.777 147.306 192.777 148.234V156.234C192.777 157.163 193.146 158.053 193.802 158.709C194.458 159.366 195.349 159.734 196.277 159.734H204.277ZM191.777 36.2344C191.777 35.3061 191.408 34.4159 190.752 33.7595C190.095 33.1031 189.205 32.7344 188.277 32.7344H180.277C179.349 32.7344 178.458 33.1031 177.802 33.7595C177.146 34.4159 176.777 35.3061 176.777 36.2344V44.2344C176.777 45.1626 177.146 46.0529 177.802 46.7092C178.458 47.3656 179.349 47.7344 180.277 47.7344H188.277C189.205 47.7344 190.095 47.3656 190.752 46.7092C191.408 46.0529 191.777 45.1626 191.777 44.2344V36.2344ZM191.777 52.2344C191.777 51.3061 191.408 50.4159 190.752 49.7595C190.095 49.1031 189.205 48.7344 188.277 48.7344H180.277C179.349 48.7344 178.458 49.1031 177.802 49.7595C177.146 50.4159 176.777 51.3061 176.777 52.2344V60.2344C176.777 61.1626 177.146 62.0529 177.802 62.7092C178.458 63.3656 179.349 63.7344 180.277 63.7344H188.277C189.205 63.7344 190.095 63.3656 190.752 62.7092C191.408 62.0529 191.777 61.1626 191.777 60.2344V52.2344ZM191.777 68.2344C191.777 67.3061 191.408 66.4159 190.752 65.7595C190.095 65.1031 189.205 64.7344 188.277 64.7344H180.277C179.349 64.7344 178.458 65.1031 177.802 65.7595C177.146 66.4159 176.777 67.3061 176.777 68.2344V76.2344C176.777 77.1626 177.146 78.0529 177.802 78.7093C178.458 79.3656 179.349 79.7344 180.277 79.7344H188.277C189.205 79.7344 190.095 79.3656 190.752 78.7093C191.408 78.0529 191.777 77.1626 191.777 76.2344V68.2344ZM191.777 84.2344C191.777 83.3061 191.408 82.4159 190.752 81.7595C190.095 81.1031 189.205 80.7344 188.277 80.7344H180.277C179.349 80.7344 178.458 81.1031 177.802 81.7595C177.146 82.4159 176.777 83.3061 176.777 84.2344V92.2344C176.777 93.1626 177.146 94.0529 177.802 94.7093C178.458 95.3656 179.349 95.7344 180.277 95.7344H188.277C189.205 95.7344 190.095 95.3656 190.752 94.7093C191.408 94.0529 191.777 93.1626 191.777 92.2344V84.2344ZM207.777 4.23438C207.777 3.30612 207.408 2.41588 206.752 1.7595C206.095 1.10312 205.205 0.734375 204.277 0.734375H196.277C195.349 0.734375 194.458 1.10312 193.802 1.7595C193.146 2.41588 192.777 3.30612 192.777 4.23438V12.2344C192.777 13.1626 193.146 14.0529 193.802 14.7092C194.458 15.3656 195.349 15.7344 196.277 15.7344H204.277C205.205 15.7344 206.095 15.3656 206.752 14.7092C207.408 14.0529 207.777 13.1626 207.777 12.2344V4.23438ZM207.777 20.2344C207.777 19.3061 207.408 18.4159 206.752 17.7595C206.095 17.1031 205.205 16.7344 204.277 16.7344H196.277C195.349 16.7344 194.458 17.1031 193.802 17.7595C193.146 18.4159 192.777 19.3061 192.777 20.2344V28.2344C192.777 29.1626 193.146 30.0529 193.802 30.7092C194.458 31.3656 195.349 31.7344 196.277 31.7344H204.277C205.205 31.7344 206.095 31.3656 206.752 30.7092C207.408 30.0529 207.777 29.1626 207.777 28.2344V20.2344ZM207.777 68.2344C207.777 67.3061 207.408 66.4159 206.752 65.7595C206.095 65.1031 205.205 64.7344 204.277 64.7344H196.277C195.349 64.7344 194.458 65.1031 193.802 65.7595C193.146 66.4159 192.777 67.3061 192.777 68.2344V76.2344C192.777 77.1626 193.146 78.0529 193.802 78.7093C194.458 79.3656 195.349 79.7344 196.277 79.7344H204.277C205.205 79.7344 206.095 79.3656 206.752 78.7093C207.408 78.0529 207.777 77.1626 207.777 76.2344V68.2344ZM207.777 116.234C207.777 115.306 207.408 114.416 206.752 113.759C206.095 113.103 205.205 112.734 204.277 112.734H196.277C195.349 112.734 194.458 113.103 193.802 113.759C193.146 114.416 192.777 115.306 192.777 116.234V124.234C192.777 125.163 193.146 126.053 193.802 126.709C194.458 127.366 195.349 127.734 196.277 127.734H204.277C205.205 127.734 206.095 127.366 206.752 126.709C207.408 126.053 207.777 125.163 207.777 124.234V116.234ZM207.777 84.2344C207.777 83.3061 207.408 82.4159 206.752 81.7595C206.095 81.1031 205.205 80.7344 204.277 80.7344H196.277C195.349 80.7344 194.458 81.1031 193.802 81.7595C193.146 82.4159 192.777 83.3061 192.777 84.2344V92.2344C192.777 93.1626 193.146 94.0529 193.802 94.7093C194.458 95.3656 195.349 95.7344 196.277 95.7344H204.277C205.205 95.7344 206.095 95.3656 206.752 94.7093C207.408 94.0529 207.777 93.1626 207.777 92.2344V84.2344ZM207.777 100.234C207.777 99.3061 207.408 98.4159 206.752 97.7595C206.095 97.1031 205.205 96.7344 204.277 96.7344H196.277C195.349 96.7344 194.458 97.1031 193.802 97.7595C193.146 98.4159 192.777 99.3061 192.777 100.234V108.234C192.777 109.163 193.146 110.053 193.802 110.709C194.458 111.366 195.349 111.734 196.277 111.734H204.277C205.205 111.734 206.095 111.366 206.752 110.709C207.408 110.053 207.777 109.163 207.777 108.234V100.234ZM175.777 116.234C175.777 115.306 175.408 114.416 174.752 113.759C174.095 113.103 173.205 112.734 172.277 112.734H164.277C163.349 112.734 162.458 113.103 161.802 113.759C161.146 114.416 160.777 115.306 160.777 116.234V124.234C160.777 125.163 161.146 126.053 161.802 126.709C162.458 127.366 163.349 127.734 164.277 127.734H172.277C173.205 127.734 174.095 127.366 174.752 126.709C175.408 126.053 175.777 125.163 175.777 124.234V116.234ZM223.777 4.23438C223.777 3.30612 223.408 2.41588 222.752 1.7595C222.095 1.10312 221.205 0.734375 220.277 0.734375H212.277C211.349 0.734375 210.458 1.10312 209.802 1.7595C209.146 2.41588 208.777 3.30612 208.777 4.23438V12.2344C208.777 13.1626 209.146 14.0529 209.802 14.7092C210.458 15.3656 211.349 15.7344 212.277 15.7344H220.277C221.205 15.7344 222.095 15.3656 222.752 14.7092C223.408 14.0529 223.777 13.1626 223.777 12.2344V4.23438ZM223.777 20.2344C223.777 19.3061 223.408 18.4159 222.752 17.7595C222.095 17.1031 221.205 16.7344 220.277 16.7344H212.277C211.349 16.7344 210.458 17.1031 209.802 17.7595C209.146 18.4159 208.777 19.3061 208.777 20.2344V28.2344C208.777 29.1626 209.146 30.0529 209.802 30.7092C210.458 31.3656 211.349 31.7344 212.277 31.7344H220.277C221.205 31.7344 222.095 31.3656 222.752 30.7092C223.408 30.0529 223.777 29.1626 223.777 28.2344V20.2344ZM223.777 116.234C223.777 115.306 223.408 114.416 222.752 113.759C222.095 113.103 221.205 112.734 220.277 112.734H212.277C211.349 112.734 210.458 113.103 209.802 113.759C209.146 114.416 208.777 115.306 208.777 116.234V124.234C208.777 125.163 209.146 126.053 209.802 126.709C210.458 127.366 211.349 127.734 212.277 127.734H220.277C221.205 127.734 222.095 127.366 222.752 126.709C223.408 126.053 223.777 125.163 223.777 124.234V116.234ZM223.777 68.2344C223.777 67.3061 223.408 66.4159 222.752 65.7595C222.095 65.1031 221.205 64.7344 220.277 64.7344H212.277C211.349 64.7344 210.458 65.1031 209.802 65.7595C209.146 66.4159 208.777 67.3061 208.777 68.2344V76.2344C208.777 77.1626 209.146 78.0529 209.802 78.7093C210.458 79.3656 211.349 79.7344 212.277 79.7344H220.277C221.205 79.7344 222.095 79.3656 222.752 78.7093C223.408 78.0529 223.777 77.1626 223.777 76.2344V68.2344ZM223.777 84.2344C223.777 83.3061 223.408 82.4159 222.752 81.7595C222.095 81.1031 221.205 80.7344 220.277 80.7344H212.277C211.349 80.7344 210.458 81.1031 209.802 81.7595C209.146 82.4159 208.777 83.3061 208.777 84.2344V92.2344C208.777 93.1626 209.146 94.0529 209.802 94.7093C210.458 95.3656 211.349 95.7344 212.277 95.7344H220.277C221.205 95.7344 222.095 95.3656 222.752 94.7093C223.408 94.0529 223.777 93.1626 223.777 92.2344V84.2344ZM223.777 100.234C223.777 99.3061 223.408 98.4159 222.752 97.7595C222.095 97.1031 221.205 96.7344 220.277 96.7344H212.277C211.349 96.7344 210.458 97.1031 209.802 97.7595C209.146 98.4159 208.777 99.3061 208.777 100.234V108.234C208.777 109.163 209.146 110.053 209.802 110.709C210.458 111.366 211.349 111.734 212.277 111.734H220.277C221.205 111.734 222.095 111.366 222.752 110.709C223.408 110.053 223.777 109.163 223.777 108.234V100.234ZM191.777 116.234C191.777 115.306 191.408 114.416 190.752 113.759C190.095 113.103 189.205 112.734 188.277 112.734H180.277C179.349 112.734 178.458 113.103 177.802 113.759C177.146 114.416 176.777 115.306 176.777 116.234V124.234C176.777 125.163 177.146 126.053 177.802 126.709C178.458 127.366 179.349 127.734 180.277 127.734H188.277C189.205 127.734 190.095 127.366 190.752 126.709C191.408 126.053 191.777 125.163 191.777 124.234V116.234ZM220.277 207.734C221.205 207.734 222.095 207.366 222.752 206.709C223.408 206.053 223.777 205.163 223.777 204.234V196.234C223.777 195.306 223.408 194.416 222.752 193.76C222.095 193.103 221.205 192.734 220.277 192.734H212.277C211.349 192.734 210.458 193.103 209.802 193.76C209.146 194.416 208.777 195.306 208.777 196.234V204.234C208.777 205.163 209.146 206.053 209.802 206.709C210.458 207.366 211.349 207.734 212.277 207.734H220.277ZM204.277 207.734C205.205 207.734 206.095 207.366 206.752 206.709C207.408 206.053 207.777 205.163 207.777 204.234V196.234C207.777 195.306 207.408 194.416 206.752 193.76C206.095 193.103 205.205 192.734 204.277 192.734H196.277C195.349 192.734 194.458 193.103 193.802 193.76C193.146 194.416 192.777 195.306 192.777 196.234V204.234C192.777 205.163 193.146 206.053 193.802 206.709C194.458 207.366 195.349 207.734 196.277 207.734H204.277ZM188.277 207.734C189.205 207.734 190.095 207.366 190.752 206.709C191.408 206.053 191.777 205.163 191.777 204.234V196.234C191.777 195.306 191.408 194.416 190.752 193.76C190.095 193.103 189.205 192.734 188.277 192.734H180.277C179.349 192.734 178.458 193.103 177.802 193.76C177.146 194.416 176.777 195.306 176.777 196.234V204.234C176.777 205.163 177.146 206.053 177.802 206.709C178.458 207.366 179.349 207.734 180.277 207.734H188.277ZM172.277 207.734C173.205 207.734 174.095 207.366 174.752 206.709C175.408 206.053 175.777 205.163 175.777 204.234V196.234C175.777 195.306 175.408 194.416 174.752 193.76C174.095 193.103 173.205 192.734 172.277 192.734H164.277C163.349 192.734 162.458 193.103 161.802 193.76C161.146 194.416 160.777 195.306 160.777 196.234V204.234C160.777 205.163 161.146 206.053 161.802 206.709C162.458 207.366 163.349 207.734 164.277 207.734H172.277ZM124.277 207.734C125.205 207.734 126.095 207.366 126.752 206.709C127.408 206.053 127.777 205.163 127.777 204.234V196.234C127.777 195.306 127.408 194.416 126.752 193.76C126.095 193.103 125.205 192.734 124.277 192.734H116.277C115.349 192.734 114.458 193.103 113.802 193.76C113.146 194.416 112.777 195.306 112.777 196.234V204.234C112.777 205.163 113.146 206.053 113.802 206.709C114.458 207.366 115.349 207.734 116.277 207.734H124.277ZM108.277 207.734C109.205 207.734 110.095 207.366 110.752 206.709C111.408 206.053 111.777 205.163 111.777 204.234V196.234C111.777 195.306 111.408 194.416 110.752 193.76C110.095 193.103 109.205 192.734 108.277 192.734H100.277C99.3487 192.734 98.4585 193.103 97.8021 193.76C97.1457 194.416 96.777 195.306 96.777 196.234V204.234C96.777 205.163 97.1457 206.053 97.8021 206.709C98.4585 207.366 99.3487 207.734 100.277 207.734H108.277ZM220.277 223.734C221.205 223.734 222.095 223.366 222.752 222.709C223.408 222.053 223.777 221.163 223.777 220.234V212.234C223.777 211.306 223.408 210.416 222.752 209.76C222.095 209.103 221.205 208.734 220.277 208.734H212.277C211.349 208.734 210.458 209.103 209.802 209.76C209.146 210.416 208.777 211.306 208.777 212.234V220.234C208.777 221.163 209.146 222.053 209.802 222.709C210.458 223.366 211.349 223.734 212.277 223.734H220.277ZM204.277 223.734C205.205 223.734 206.095 223.366 206.752 222.709C207.408 222.053 207.777 221.163 207.777 220.234V212.234C207.777 211.306 207.408 210.416 206.752 209.76C206.095 209.103 205.205 208.734 204.277 208.734H196.277C195.349 208.734 194.458 209.103 193.802 209.76C193.146 210.416 192.777 211.306 192.777 212.234V220.234C192.777 221.163 193.146 222.053 193.802 222.709C194.458 223.366 195.349 223.734 196.277 223.734H204.277ZM188.277 223.734C189.205 223.734 190.095 223.366 190.752 222.709C191.408 222.053 191.777 221.163 191.777 220.234V212.234C191.777 211.306 191.408 210.416 190.752 209.76C190.095 209.103 189.205 208.734 188.277 208.734H180.277C179.349 208.734 178.458 209.103 177.802 209.76C177.146 210.416 176.777 211.306 176.777 212.234V220.234C176.777 221.163 177.146 222.053 177.802 222.709C178.458 223.366 179.349 223.734 180.277 223.734H188.277ZM172.277 223.734C173.205 223.734 174.095 223.366 174.752 222.709C175.408 222.053 175.777 221.163 175.777 220.234V212.234C175.777 211.306 175.408 210.416 174.752 209.76C174.095 209.103 173.205 208.734 172.277 208.734H164.277C163.349 208.734 162.458 209.103 161.802 209.76C161.146 210.416 160.777 211.306 160.777 212.234V220.234C160.777 221.163 161.146 222.053 161.802 222.709C162.458 223.366 163.349 223.734 164.277 223.734H172.277ZM124.277 223.734C125.205 223.734 126.095 223.366 126.752 222.709C127.408 222.053 127.777 221.163 127.777 220.234V212.234C127.777 211.306 127.408 210.416 126.752 209.76C126.095 209.103 125.205 208.734 124.277 208.734H116.277C115.349 208.734 114.458 209.103 113.802 209.76C113.146 210.416 112.777 211.306 112.777 212.234V220.234C112.777 221.163 113.146 222.053 113.802 222.709C114.458 223.366 115.349 223.734 116.277 223.734H124.277ZM108.277 223.734C109.205 223.734 110.095 223.366 110.752 222.709C111.408 222.053 111.777 221.163 111.777 220.234V212.234C111.777 211.306 111.408 210.416 110.752 209.76C110.095 209.103 109.205 208.734 108.277 208.734H100.277C99.3487 208.734 98.4585 209.103 97.8021 209.76C97.1457 210.416 96.777 211.306 96.777 212.234V220.234C96.777 221.163 97.1457 222.053 97.8021 222.709C98.4585 223.366 99.3487 223.734 100.277 223.734H108.277ZM220.277 239.734C221.205 239.734 222.095 239.366 222.752 238.709C223.408 238.053 223.777 237.163 223.777 236.234V228.234C223.777 227.306 223.408 226.416 222.752 225.76C222.095 225.103 221.205 224.734 220.277 224.734H212.277C211.349 224.734 210.458 225.103 209.802 225.76C209.146 226.416 208.777 227.306 208.777 228.234V236.234C208.777 237.163 209.146 238.053 209.802 238.709C210.458 239.366 211.349 239.734 212.277 239.734H220.277ZM204.277 239.734C205.205 239.734 206.095 239.366 206.752 238.709C207.408 238.053 207.777 237.163 207.777 236.234V228.234C207.777 227.306 207.408 226.416 206.752 225.76C206.095 225.103 205.205 224.734 204.277 224.734H196.277C195.349 224.734 194.458 225.103 193.802 225.76C193.146 226.416 192.777 227.306 192.777 228.234V236.234C192.777 237.163 193.146 238.053 193.802 238.709C194.458 239.366 195.349 239.734 196.277 239.734H204.277ZM188.277 239.734C189.205 239.734 190.095 239.366 190.752 238.709C191.408 238.053 191.777 237.163 191.777 236.234V228.234C191.777 227.306 191.408 226.416 190.752 225.76C190.095 225.103 189.205 224.734 188.277 224.734H180.277C179.349 224.734 178.458 225.103 177.802 225.76C177.146 226.416 176.777 227.306 176.777 228.234V236.234C176.777 237.163 177.146 238.053 177.802 238.709C178.458 239.366 179.349 239.734 180.277 239.734H188.277ZM172.277 239.734C173.205 239.734 174.095 239.366 174.752 238.709C175.408 238.053 175.777 237.163 175.777 236.234V228.234C175.777 227.306 175.408 226.416 174.752 225.76C174.095 225.103 173.205 224.734 172.277 224.734H164.277C163.349 224.734 162.458 225.103 161.802 225.76C161.146 226.416 160.777 227.306 160.777 228.234V236.234C160.777 237.163 161.146 238.053 161.802 238.709C162.458 239.366 163.349 239.734 164.277 239.734H172.277ZM156.277 239.734C157.205 239.734 158.095 239.366 158.752 238.709C159.408 238.053 159.777 237.163 159.777 236.234V228.234C159.777 227.306 159.408 226.416 158.752 225.76C158.095 225.103 157.205 224.734 156.277 224.734H148.277C147.349 224.734 146.458 225.103 145.802 225.76C145.146 226.416 144.777 227.306 144.777 228.234V236.234C144.777 237.163 145.146 238.053 145.802 238.709C146.458 239.366 147.349 239.734 148.277 239.734H156.277ZM140.277 239.734C141.205 239.734 142.095 239.366 142.752 238.709C143.408 238.053 143.777 237.163 143.777 236.234V228.234C143.777 227.306 143.408 226.416 142.752 225.76C142.095 225.103 141.205 224.734 140.277 224.734H132.277C131.349 224.734 130.458 225.103 129.802 225.76C129.146 226.416 128.777 227.306 128.777 228.234V236.234C128.777 237.163 129.146 238.053 129.802 238.709C130.458 239.366 131.349 239.734 132.277 239.734H140.277ZM220.277 255.734C221.205 255.734 222.095 255.366 222.752 254.709C223.408 254.053 223.777 253.163 223.777 252.234V244.234C223.777 243.306 223.408 242.416 222.752 241.76C222.095 241.103 221.205 240.734 220.277 240.734H212.277C211.349 240.734 210.458 241.103 209.802 241.76C209.146 242.416 208.777 243.306 208.777 244.234V252.234C208.777 253.163 209.146 254.053 209.802 254.709C210.458 255.366 211.349 255.734 212.277 255.734H220.277ZM204.277 255.734C205.205 255.734 206.095 255.366 206.752 254.709C207.408 254.053 207.777 253.163 207.777 252.234V244.234C207.777 243.306 207.408 242.416 206.752 241.76C206.095 241.103 205.205 240.734 204.277 240.734H196.277C195.349 240.734 194.458 241.103 193.802 241.76C193.146 242.416 192.777 243.306 192.777 244.234V252.234C192.777 253.163 193.146 254.053 193.802 254.709C194.458 255.366 195.349 255.734 196.277 255.734H204.277ZM188.277 255.734C189.205 255.734 190.095 255.366 190.752 254.709C191.408 254.053 191.777 253.163 191.777 252.234V244.234C191.777 243.306 191.408 242.416 190.752 241.76C190.095 241.103 189.205 240.734 188.277 240.734H180.277C179.349 240.734 178.458 241.103 177.802 241.76C177.146 242.416 176.777 243.306 176.777 244.234V252.234C176.777 253.163 177.146 254.053 177.802 254.709C178.458 255.366 179.349 255.734 180.277 255.734H188.277ZM110.327 144.239C111.128 143.777 111.826 143.1 112.273 142.285C112.726 143.109 113.403 143.787 114.227 144.239C113.434 144.681 112.731 145.4 112.273 146.185C111.803 145.379 111.147 144.681 110.327 144.239ZM94.327 144.239C95.128 143.777 95.826 143.1 96.273 142.285C96.7255 143.109 97.4033 143.787 98.227 144.239C97.434 144.681 96.731 145.4 96.273 146.185C95.803 145.379 95.147 144.681 94.327 144.239ZM78.327 144.239C79.128 143.777 79.826 143.1 80.273 142.285C80.7255 143.109 81.4033 143.787 82.227 144.239C81.434 144.681 80.731 145.4 80.273 146.185C79.803 145.379 79.147 144.681 78.327 144.239ZM126.327 160.239C127.128 159.777 127.826 159.1 128.273 158.285C128.726 159.109 129.403 159.787 130.227 160.239C129.434 160.681 128.731 161.4 128.273 162.185C127.803 161.379 127.147 160.681 126.327 160.239ZM94.327 160.239C95.128 159.777 95.826 159.1 96.273 158.285C96.7255 159.109 97.4033 159.787 98.227 160.239C97.434 160.681 96.731 161.4 96.273 162.185C95.803 161.379 95.147 160.681 94.327 160.239ZM78.327 160.239C79.128 159.777 79.826 159.1 80.273 158.285C80.7255 159.109 81.4033 159.787 82.227 160.239C81.434 160.681 80.731 161.4 80.273 162.185C79.803 161.379 79.147 160.681 78.327 160.239ZM62.327 160.239C63.128 159.777 63.826 159.1 64.273 158.285C64.7255 159.109 65.4033 159.787 66.227 160.239C65.434 160.681 64.731 161.4 64.273 162.185C63.803 161.379 63.147 160.681 62.327 160.239ZM142.327 176.239C143.128 175.777 143.826 175.1 144.273 174.285C144.726 175.109 145.403 175.787 146.227 176.239C145.434 176.681 144.731 177.4 144.273 178.185C143.803 177.379 143.147 176.681 142.327 176.239ZM78.327 176.239C79.128 175.777 79.826 175.1 80.273 174.285C80.7255 175.109 81.4033 175.787 82.227 176.239C81.434 176.681 80.731 177.4 80.273 178.185C79.803 177.379 79.147 176.681 78.327 176.239ZM62.327 176.239C63.128 175.777 63.826 175.1 64.273 174.285C64.7255 175.109 65.4033 175.787 66.227 176.239C65.434 176.681 64.731 177.4 64.273 178.185C63.803 177.379 63.147 176.681 62.327 176.239ZM46.327 176.239C47.128 175.777 47.826 175.1 48.273 174.285C48.7255 175.109 49.4033 175.787 50.227 176.239C49.434 176.681 48.731 177.4 48.273 178.185C47.803 177.379 47.147 176.681 46.327 176.239ZM172.277 255.734C173.205 255.734 174.095 255.366 174.752 254.709C175.408 254.053 175.777 253.163 175.777 252.234V244.234C175.777 243.306 175.408 242.416 174.752 241.76C174.095 241.103 173.205 240.734 172.277 240.734H164.277C163.349 240.734 162.458 241.103 161.802 241.76C161.146 242.416 160.777 243.306 160.777 244.234V252.234C160.777 253.163 161.146 254.053 161.802 254.709C162.458 255.366 163.349 255.734 164.277 255.734H172.277ZM156.277 255.734C157.205 255.734 158.095 255.366 158.752 254.709C159.408 254.053 159.777 253.163 159.777 252.234V244.234C159.777 243.306 159.408 242.416 158.752 241.76C158.095 241.103 157.205 240.734 156.277 240.734H148.277C147.349 240.734 146.458 241.103 145.802 241.76C145.146 242.416 144.777 243.306 144.777 244.234V252.234C144.777 253.163 145.146 254.053 145.802 254.709C146.458 255.366 147.349 255.734 148.277 255.734H156.277ZM140.277 255.734C141.205 255.734 142.095 255.366 142.752 254.709C143.408 254.053 143.777 253.163 143.777 252.234V244.234C143.777 243.306 143.408 242.416 142.752 241.76C142.095 241.103 141.205 240.734 140.277 240.734H132.277C131.349 240.734 130.458 241.103 129.802 241.76C129.146 242.416 128.777 243.306 128.777 244.234V252.234C128.777 253.163 129.146 254.053 129.802 254.709C130.458 255.366 131.349 255.734 132.277 255.734H140.277ZM220.277 271.734C221.205 271.734 222.095 271.366 222.752 270.709C223.408 270.053 223.777 269.163 223.777 268.234V260.234C223.777 259.306 223.408 258.416 222.752 257.759C222.095 257.103 221.205 256.734 220.277 256.734H212.277C211.349 256.734 210.458 257.103 209.802 257.759C209.146 258.416 208.777 259.306 208.777 260.234V268.234C208.777 269.163 209.146 270.053 209.802 270.709C210.458 271.366 211.349 271.734 212.277 271.734H220.277ZM204.277 271.734C205.205 271.734 206.095 271.366 206.752 270.709C207.408 270.053 207.777 269.163 207.777 268.234V260.234C207.777 259.306 207.408 258.416 206.752 257.759C206.095 257.103 205.205 256.734 204.277 256.734H196.277C195.349 256.734 194.458 257.103 193.802 257.759C193.146 258.416 192.777 259.306 192.777 260.234V268.234C192.777 269.163 193.146 270.053 193.802 270.709C194.458 271.366 195.349 271.734 196.277 271.734H204.277ZM188.277 271.734C189.205 271.734 190.095 271.366 190.752 270.709C191.408 270.053 191.777 269.163 191.777 268.234V260.234C191.777 259.306 191.408 258.416 190.752 257.759C190.095 257.103 189.205 256.734 188.277 256.734H180.277C179.349 256.734 178.458 257.103 177.802 257.759C177.146 258.416 176.777 259.306 176.777 260.234V268.234C176.777 269.163 177.146 270.053 177.802 270.709C178.458 271.366 179.349 271.734 180.277 271.734H188.277ZM172.277 271.734C173.205 271.734 174.095 271.366 174.752 270.709C175.408 270.053 175.777 269.163 175.777 268.234V260.234C175.777 259.306 175.408 258.416 174.752 257.759C174.095 257.103 173.205 256.734 172.277 256.734H164.277C163.349 256.734 162.458 257.103 161.802 257.759C161.146 258.416 160.777 259.306 160.777 260.234V268.234C160.777 269.163 161.146 270.053 161.802 270.709C162.458 271.366 163.349 271.734 164.277 271.734H172.277ZM124.277 271.734C125.205 271.734 126.095 271.366 126.752 270.709C127.408 270.053 127.777 269.163 127.777 268.234V260.234C127.777 259.306 127.408 258.416 126.752 257.759C126.095 257.103 125.205 256.734 124.277 256.734H116.277C115.349 256.734 114.458 257.103 113.802 257.759C113.146 258.416 112.777 259.306 112.777 260.234V268.234C112.777 269.163 113.146 270.053 113.802 270.709C114.458 271.366 115.349 271.734 116.277 271.734H124.277ZM108.277 271.734C109.205 271.734 110.095 271.366 110.752 270.709C111.408 270.053 111.777 269.163 111.777 268.234V260.234C111.777 259.306 111.408 258.416 110.752 257.759C110.095 257.103 109.205 256.734 108.277 256.734H100.277C99.3487 256.734 98.4585 257.103 97.8021 257.759C97.1457 258.416 96.777 259.306 96.777 260.234V268.234C96.777 269.163 97.1457 270.053 97.8021 270.709C98.4585 271.366 99.3487 271.734 100.277 271.734H108.277ZM220.277 287.734C221.205 287.734 222.095 287.366 222.752 286.709C223.408 286.053 223.777 285.163 223.777 284.234V276.234C223.777 275.306 223.408 274.416 222.752 273.759C222.095 273.103 221.205 272.734 220.277 272.734H212.277C211.349 272.734 210.458 273.103 209.802 273.759C209.146 274.416 208.777 275.306 208.777 276.234V284.234C208.777 285.163 209.146 286.053 209.802 286.709C210.458 287.366 211.349 287.734 212.277 287.734H220.277ZM204.277 287.734C205.205 287.734 206.095 287.366 206.752 286.709C207.408 286.053 207.777 285.163 207.777 284.234V276.234C207.777 275.306 207.408 274.416 206.752 273.759C206.095 273.103 205.205 272.734 204.277 272.734H196.277C195.349 272.734 194.458 273.103 193.802 273.759C193.146 274.416 192.777 275.306 192.777 276.234V284.234C192.777 285.163 193.146 286.053 193.802 286.709C194.458 287.366 195.349 287.734 196.277 287.734H204.277ZM188.277 287.734C189.205 287.734 190.095 287.366 190.752 286.709C191.408 286.053 191.777 285.163 191.777 284.234V276.234C191.777 275.306 191.408 274.416 190.752 273.759C190.095 273.103 189.205 272.734 188.277 272.734H180.277C179.349 272.734 178.458 273.103 177.802 273.759C177.146 274.416 176.777 275.306 176.777 276.234V284.234C176.777 285.163 177.146 286.053 177.802 286.709C178.458 287.366 179.349 287.734 180.277 287.734H188.277ZM172.277 287.734C173.205 287.734 174.095 287.366 174.752 286.709C175.408 286.053 175.777 285.163 175.777 284.234V276.234C175.777 275.306 175.408 274.416 174.752 273.759C174.095 273.103 173.205 272.734 172.277 272.734H164.277C163.349 272.734 162.458 273.103 161.802 273.759C161.146 274.416 160.777 275.306 160.777 276.234V284.234C160.777 285.163 161.146 286.053 161.802 286.709C162.458 287.366 163.349 287.734 164.277 287.734H172.277ZM124.277 287.734C125.205 287.734 126.095 287.366 126.752 286.709C127.408 286.053 127.777 285.163 127.777 284.234V276.234C127.777 275.306 127.408 274.416 126.752 273.759C126.095 273.103 125.205 272.734 124.277 272.734H116.277C115.349 272.734 114.458 273.103 113.802 273.759C113.146 274.416 112.777 275.306 112.777 276.234V284.234C112.777 285.163 113.146 286.053 113.802 286.709C114.458 287.366 115.349 287.734 116.277 287.734H124.277ZM108.277 287.734C109.205 287.734 110.095 287.366 110.752 286.709C111.408 286.053 111.777 285.163 111.777 284.234V276.234C111.777 275.306 111.408 274.416 110.752 273.759C110.095 273.103 109.205 272.734 108.277 272.734H100.277C99.3487 272.734 98.4585 273.103 97.8021 273.759C97.1457 274.416 96.777 275.306 96.777 276.234V284.234C96.777 285.163 97.1457 286.053 97.8021 286.709C98.4585 287.366 99.3487 287.734 100.277 287.734H108.277ZM188.277 303.734C189.205 303.734 190.095 303.366 190.752 302.709C191.408 302.053 191.777 301.163 191.777 300.234V292.234C191.777 291.306 191.408 290.416 190.752 289.759C190.095 289.103 189.205 288.734 188.277 288.734H180.277C179.349 288.734 178.458 289.103 177.802 289.759C177.146 290.416 176.777 291.306 176.777 292.234V300.234C176.777 301.163 177.146 302.053 177.802 302.709C178.458 303.366 179.349 303.734 180.277 303.734H188.277ZM172.277 303.734C173.205 303.734 174.095 303.366 174.752 302.709C175.408 302.053 175.777 301.163 175.777 300.234V292.234C175.777 291.306 175.408 290.416 174.752 289.759C174.095 289.103 173.205 288.734 172.277 288.734H164.277C163.349 288.734 162.458 289.103 161.802 289.759C161.146 290.416 160.777 291.306 160.777 292.234V300.234C160.777 301.163 161.146 302.053 161.802 302.709C162.458 303.366 163.349 303.734 164.277 303.734H172.277ZM188.277 319.734C189.205 319.734 190.095 319.366 190.752 318.709C191.408 318.053 191.777 317.163 191.777 316.234V308.234C191.777 307.306 191.408 306.416 190.752 305.759C190.095 305.103 189.205 304.734 188.277 304.734H180.277C179.349 304.734 178.458 305.103 177.802 305.759C177.146 306.416 176.777 307.306 176.777 308.234V316.234C176.777 317.163 177.146 318.053 177.802 318.709C178.458 319.366 179.349 319.734 180.277 319.734H188.277ZM172.277 319.734C173.205 319.734 174.095 319.366 174.752 318.709C175.408 318.053 175.777 317.163 175.777 316.234V308.234C175.777 307.306 175.408 306.416 174.752 305.759C174.095 305.103 173.205 304.734 172.277 304.734H164.277C163.349 304.734 162.458 305.103 161.802 305.759C161.146 306.416 160.777 307.306 160.777 308.234V316.234C160.777 317.163 161.146 318.053 161.802 318.709C162.458 319.366 163.349 319.734 164.277 319.734H172.277ZM206.327 144.239C207.128 143.777 207.826 143.1 208.273 142.285C208.726 143.109 209.403 143.787 210.227 144.239C209.434 144.681 208.731 145.4 208.273 146.185C207.803 145.379 207.147 144.681 206.327 144.239ZM222.327 144.239C223.128 143.777 223.826 143.1 224.273 142.285C224.726 143.109 225.403 143.787 226.227 144.239C225.434 144.681 224.731 145.4 224.273 146.185C223.803 145.379 223.147 144.681 222.327 144.239ZM176.282 50.1844C175.82 49.3844 175.143 48.6864 174.328 48.2384C175.152 47.7861 175.829 47.1087 176.282 46.2854C176.725 47.0774 177.443 47.7814 178.228 48.2384C177.423 48.7084 176.725 49.3644 176.282 50.1844ZM176.282 66.1844C175.82 65.3844 175.143 64.6864 174.328 64.2384C175.152 63.7861 175.829 63.1087 176.282 62.2854C176.725 63.0774 177.443 63.7814 178.228 64.2384C177.423 64.7084 176.725 65.3644 176.282 66.1844ZM176.282 82.1844C175.82 81.3844 175.143 80.6864 174.328 80.2384C175.152 79.7861 175.829 79.1087 176.282 78.2854C176.725 79.0774 177.443 79.7814 178.228 80.2384C177.423 80.7084 176.725 81.3644 176.282 82.1844ZM192.282 34.1844C191.82 33.3844 191.143 32.6864 190.328 32.2384C191.152 31.7861 191.829 31.1087 192.282 30.2854C192.725 31.0774 193.443 31.7814 194.228 32.2384C193.423 32.7084 192.725 33.3644 192.282 34.1844ZM192.282 66.1844C191.82 65.3844 191.143 64.6864 190.328 64.2384C191.152 63.7861 191.829 63.1087 192.282 62.2854C192.725 63.0774 193.443 63.7814 194.228 64.2384C193.423 64.7084 192.725 65.3644 192.282 66.1844ZM192.282 82.1844C191.82 81.3844 191.143 80.6864 190.328 80.2384C191.152 79.7861 191.829 79.1087 192.282 78.2854C192.725 79.0774 193.443 79.7814 194.228 80.2384C193.423 80.7084 192.725 81.3644 192.282 82.1844ZM192.282 98.1844C191.82 97.3844 191.143 96.6864 190.328 96.2384C191.152 95.7861 191.829 95.1087 192.282 94.2854C192.725 95.0774 193.443 95.7814 194.228 96.2384C193.423 96.7084 192.725 97.3644 192.282 98.1844ZM208.282 130.185C207.82 129.383 207.143 128.686 206.328 128.238C207.152 127.786 207.829 127.109 208.282 126.285C208.725 127.077 209.443 127.781 210.228 128.238C209.423 128.708 208.725 129.365 208.282 130.185ZM224.282 130.185C223.82 129.383 223.143 128.686 222.328 128.238C223.152 127.786 223.829 127.109 224.282 126.285C224.725 127.077 225.443 127.781 226.228 128.238C225.423 128.708 224.725 129.365 224.282 130.185ZM192.278 130.185C191.816 129.383 191.139 128.686 190.324 128.238C191.148 127.786 191.825 127.109 192.278 126.285C192.721 127.077 193.439 127.781 194.224 128.238C193.419 128.708 192.721 129.365 192.278 130.185ZM208.282 18.1844C207.82 17.3844 207.143 16.6864 206.328 16.2384C207.152 15.7861 207.829 15.1087 208.282 14.2854C208.725 15.0774 209.443 15.7814 210.228 16.2384C209.423 16.7084 208.725 17.3644 208.282 18.1844ZM224.282 18.1844C223.82 17.3844 223.143 16.6864 222.328 16.2384C223.152 15.7861 223.829 15.1087 224.282 14.2854C224.725 15.0774 225.443 15.7814 226.228 16.2384C225.423 16.7084 224.725 17.3644 224.282 18.1844ZM208.282 82.1844C207.82 81.3844 207.143 80.6864 206.328 80.2384C207.152 79.7861 207.829 79.1087 208.282 78.2854C208.725 79.0774 209.443 79.7814 210.228 80.2384C209.423 80.7084 208.725 81.3644 208.282 82.1844ZM224.282 82.1844C223.82 81.3844 223.143 80.6864 222.328 80.2384C223.152 79.7861 223.829 79.1087 224.282 78.2854C224.725 79.0774 225.443 79.7814 226.228 80.2384C225.423 80.7084 224.725 81.3644 224.282 82.1844ZM208.282 98.1844C207.82 97.3844 207.143 96.6864 206.328 96.2384C207.152 95.7861 207.829 95.1087 208.282 94.2854C208.725 95.0774 209.443 95.7814 210.228 96.2384C209.423 96.7084 208.725 97.3644 208.282 98.1844ZM224.282 98.1844C223.82 97.3844 223.143 96.6864 222.328 96.2384C223.152 95.7861 223.829 95.1087 224.282 94.2854C224.725 95.0774 225.443 95.7814 226.228 96.2384C225.423 96.7084 224.725 97.3644 224.282 98.1844ZM208.282 114.185C207.82 113.383 207.143 112.686 206.328 112.238C207.152 111.786 207.829 111.109 208.282 110.285C208.725 111.077 209.443 111.781 210.228 112.238C209.423 112.708 208.725 113.365 208.282 114.185ZM224.282 114.185C223.82 113.383 223.143 112.686 222.328 112.238C223.152 111.786 223.829 111.109 224.282 110.285C224.725 111.077 225.443 111.781 226.228 112.238C225.423 112.708 224.725 113.365 224.282 114.185ZM176.282 130.185C175.82 129.383 175.143 128.686 174.328 128.238C175.152 127.786 175.829 127.109 176.282 126.285C176.725 127.077 177.443 127.781 178.228 128.238C177.423 128.708 176.725 129.365 176.282 130.185ZM158.327 192.239C159.128 191.777 159.826 191.1 160.273 190.285C160.726 191.109 161.403 191.787 162.227 192.239C161.434 192.681 160.731 193.4 160.273 194.185C159.803 193.379 159.147 192.681 158.327 192.239ZM126.327 192.239C127.128 191.777 127.826 191.1 128.273 190.285C128.726 191.109 129.403 191.787 130.227 192.239C129.434 192.681 128.731 193.4 128.273 194.185C127.803 193.379 127.147 192.681 126.327 192.239ZM94.327 192.239C95.128 191.777 95.826 191.1 96.273 190.285C96.7255 191.109 97.4033 191.787 98.227 192.239C97.434 192.681 96.731 193.4 96.273 194.185C95.803 193.379 95.147 192.681 94.327 192.239ZM206.327 208.239C207.128 207.777 207.826 207.1 208.273 206.285C208.726 207.109 209.403 207.787 210.227 208.239C209.434 208.681 208.731 209.4 208.273 210.185C207.803 209.379 207.147 208.681 206.327 208.239ZM222.327 208.239C223.128 207.777 223.826 207.1 224.273 206.285C224.726 207.109 225.403 207.787 226.227 208.239C225.434 208.681 224.731 209.4 224.273 210.185C223.803 209.379 223.147 208.681 222.327 208.239ZM190.327 208.239C191.128 207.777 191.826 207.1 192.273 206.285C192.726 207.109 193.403 207.787 194.227 208.239C193.434 208.681 192.731 209.4 192.273 210.185C191.803 209.379 191.147 208.681 190.327 208.239ZM174.327 208.239C175.128 207.777 175.826 207.1 176.273 206.285C176.726 207.109 177.403 207.787 178.227 208.239C177.434 208.681 176.731 209.4 176.273 210.185C175.803 209.379 175.147 208.681 174.327 208.239ZM110.327 208.239C111.128 207.777 111.826 207.1 112.273 206.285C112.726 207.109 113.403 207.787 114.227 208.239C113.434 208.681 112.731 209.4 112.273 210.185C111.803 209.379 111.147 208.681 110.327 208.239ZM206.327 224.239C207.128 223.777 207.826 223.1 208.273 222.285C208.726 223.109 209.403 223.787 210.227 224.239C209.434 224.681 208.731 225.4 208.273 226.185C207.803 225.379 207.147 224.681 206.327 224.239ZM222.327 224.239C223.128 223.777 223.826 223.1 224.273 222.285C224.726 223.109 225.403 223.787 226.227 224.239C225.434 224.681 224.731 225.4 224.273 226.185C223.803 225.379 223.147 224.681 222.327 224.239ZM190.327 224.239C191.128 223.777 191.826 223.1 192.273 222.285C192.726 223.109 193.403 223.787 194.227 224.239C193.434 224.681 192.731 225.4 192.273 226.185C191.803 225.379 191.147 224.681 190.327 224.239ZM174.327 224.239C175.128 223.777 175.826 223.1 176.273 222.285C176.726 223.109 177.403 223.787 178.227 224.239C177.434 224.681 176.731 225.4 176.273 226.185C175.803 225.379 175.147 224.681 174.327 224.239ZM158.327 224.239C159.128 223.777 159.826 223.1 160.273 222.285C160.726 223.109 161.403 223.787 162.227 224.239C161.434 224.681 160.731 225.4 160.273 226.185C159.803 225.379 159.147 224.681 158.327 224.239ZM126.327 224.239C127.128 223.777 127.826 223.1 128.273 222.285C128.726 223.109 129.403 223.787 130.227 224.239C129.434 224.681 128.731 225.4 128.273 226.185C127.803 225.379 127.147 224.681 126.327 224.239ZM206.327 240.239C207.128 239.777 207.826 239.1 208.273 238.285C208.726 239.109 209.403 239.787 210.227 240.239C209.434 240.681 208.731 241.4 208.273 242.185C207.803 241.379 207.147 240.681 206.327 240.239ZM222.327 240.239C223.128 239.777 223.826 239.1 224.273 238.285C224.726 239.109 225.403 239.787 226.227 240.239C225.434 240.681 224.731 241.4 224.273 242.185C223.803 241.379 223.147 240.681 222.327 240.239ZM190.327 240.239C191.128 239.777 191.826 239.1 192.273 238.285C192.726 239.109 193.403 239.787 194.227 240.239C193.434 240.681 192.731 241.4 192.273 242.185C191.803 241.379 191.147 240.681 190.327 240.239ZM174.327 240.239C175.128 239.777 175.826 239.1 176.273 238.285C176.726 239.109 177.403 239.787 178.227 240.239C177.434 240.681 176.731 241.4 176.273 242.185C175.803 241.379 175.147 240.681 174.327 240.239ZM158.327 240.239C159.128 239.777 159.826 239.1 160.273 238.285C160.726 239.109 161.403 239.787 162.227 240.239C161.434 240.681 160.731 241.4 160.273 242.185C159.803 241.379 159.147 240.681 158.327 240.239ZM142.327 240.239C143.128 239.777 143.826 239.1 144.273 238.285C144.726 239.109 145.403 239.787 146.227 240.239C145.434 240.681 144.731 241.4 144.273 242.185C143.803 241.379 143.147 240.681 142.327 240.239ZM206.327 256.239C207.128 255.777 207.826 255.1 208.273 254.285C208.726 255.109 209.403 255.787 210.227 256.239C209.434 256.681 208.731 257.4 208.273 258.185C207.803 257.379 207.147 256.681 206.327 256.239ZM222.327 256.239C223.128 255.777 223.826 255.1 224.273 254.285C224.726 255.109 225.403 255.787 226.227 256.239C225.434 256.681 224.731 257.4 224.273 258.185C223.803 257.379 223.147 256.681 222.327 256.239ZM190.327 256.239C191.128 255.777 191.826 255.1 192.273 254.285C192.726 255.109 193.403 255.787 194.227 256.239C193.434 256.681 192.731 257.4 192.273 258.185C191.803 257.379 191.147 256.681 190.327 256.239ZM174.327 256.239C175.128 255.777 175.826 255.1 176.273 254.285C176.726 255.109 177.403 255.787 178.227 256.239C177.434 256.681 176.731 257.4 176.273 258.185C175.803 257.379 175.147 256.681 174.327 256.239ZM158.327 256.239C159.128 255.777 159.826 255.1 160.273 254.285C160.726 255.109 161.403 255.787 162.227 256.239C161.434 256.681 160.731 257.4 160.273 258.185C159.803 257.379 159.147 256.681 158.327 256.239ZM126.327 256.239C127.128 255.777 127.826 255.1 128.273 254.285C128.726 255.109 129.403 255.787 130.227 256.239C129.434 256.681 128.731 257.4 128.273 258.185C127.803 257.379 127.147 256.681 126.327 256.239ZM206.327 272.239C207.128 271.777 207.826 271.1 208.273 270.285C208.726 271.109 209.403 271.787 210.227 272.239C209.434 272.681 208.731 273.4 208.273 274.185C207.803 273.379 207.147 272.681 206.327 272.239ZM222.327 272.239C223.128 271.777 223.826 271.1 224.273 270.285C224.726 271.109 225.403 271.787 226.227 272.239C225.434 272.681 224.731 273.4 224.273 274.185C223.803 273.379 223.147 272.681 222.327 272.239ZM190.327 272.239C191.128 271.777 191.826 271.1 192.273 270.285C192.726 271.109 193.403 271.787 194.227 272.239C193.434 272.681 192.731 273.4 192.273 274.185C191.803 273.379 191.147 272.681 190.327 272.239ZM174.327 272.239C175.128 271.777 175.826 271.1 176.273 270.285C176.726 271.109 177.403 271.787 178.227 272.239C177.434 272.681 176.731 273.4 176.273 274.185C175.803 273.379 175.147 272.681 174.327 272.239ZM110.327 272.239C111.128 271.777 111.826 271.1 112.273 270.285C112.726 271.109 113.403 271.787 114.227 272.239C113.434 272.681 112.731 273.4 112.273 274.185C111.803 273.379 111.147 272.681 110.327 272.239ZM190.327 288.239C191.128 287.777 191.826 287.1 192.273 286.285C192.726 287.109 193.403 287.787 194.227 288.239C193.434 288.681 192.731 289.4 192.273 290.185C191.803 289.379 191.147 288.681 190.327 288.239ZM174.327 288.239C175.128 287.777 175.826 287.1 176.273 286.285C176.726 287.109 177.403 287.787 178.227 288.239C177.434 288.681 176.731 289.4 176.273 290.185C175.803 289.379 175.147 288.681 174.327 288.239ZM174.327 304.239C175.128 303.777 175.826 303.1 176.273 302.285C176.726 303.109 177.403 303.787 178.227 304.239C177.434 304.681 176.731 305.4 176.273 306.185C175.803 305.379 175.147 304.681 174.327 304.239Z" fill="#252525"/>
</g>
</g>
<defs>
<clipPath id="clip0_12_11">
<rect width="226" height="543" fill="white" transform="translate(0.5 0.734375)"/>
</clipPath>
<clipPath id="clip1_12_11">
<rect width="226" height="543" fill="white" transform="translate(0.5 0.734375)"/>
</clipPath>
</defs>
</svg>
