<svg width="122" height="24" viewBox="0 0 122 24" fill="none" xmlns="http://www.w3.org/2000/svg">
<g clip-path="url(#clip0_12_8)">
<g clip-path="url(#clip1_12_8)">
<g clip-path="url(#clip2_12_8)">
<path d="M22.523 9.67886H25.865C26.224 9.67986 26.515 9.97086 26.515 10.3299V13.6749C26.515 14.0339 26.223 14.3259 25.864 14.3259H22.517C22.158 14.3269 21.868 14.6169 21.868 14.9769V22.9689C21.868 23.3279 21.576 23.6199 21.217 23.6199H17.87H16.571H13.225H12.575V23.6139C6.15702 23.6139 0.955017 18.4129 0.955017 11.9969C0.955017 5.58186 6.15702 0.380859 12.575 0.380859V0.385859H16.575C16.934 0.387859 17.223 0.678859 17.223 1.03686V4.38286V4.38486C17.224 4.74286 17.515 5.03286 17.874 5.03286H21.221C21.575 5.03286 21.863 4.74986 21.871 4.39786V4.38986V4.38386V4.38086V1.03486C21.872 0.677859 22.162 0.387859 22.52 0.385859H25.872C26.231 0.387859 26.52 0.678859 26.52 1.03686V4.38286C26.52 4.74186 26.229 5.03286 25.87 5.03286H22.523H22.522C22.163 5.03286 21.872 5.32486 21.872 5.68286V9.02786C21.872 9.38686 22.164 9.67886 22.523 9.67886ZM13.228 9.67886H16.575C16.934 9.67886 17.226 9.38686 17.226 9.02786V5.68286C17.226 5.32386 16.935 5.03186 16.576 5.03186H13.227C12.869 5.03186 12.578 5.32286 12.578 5.68186V9.02886C12.578 9.38886 12.869 9.67886 13.228 9.67886ZM21.223 14.3259C21.582 14.3259 21.873 14.0339 21.873 13.6749V10.3299C21.873 9.97086 21.583 9.67886 21.224 9.67886H17.875C17.516 9.67986 17.225 9.97086 17.225 10.3299V13.6749C17.225 14.0339 17.517 14.3259 17.876 14.3259H21.223ZM117.508 8.97786V15.1509C117.508 15.9429 117.789 16.1989 118.812 16.1989H120.955V18.8539H118.579C115.738 18.8539 114.619 17.7589 114.619 15.2899V8.97786V6.50886V3.52686H117.507V6.50886H120.955V8.97786H117.508ZM42.287 6.15886C38.468 6.15886 35.556 8.95386 35.556 12.6799C35.556 16.4309 38.468 19.2009 42.287 19.2009C45.385 19.2009 47.878 17.4779 48.576 14.8229L45.875 14.0779C45.339 15.7779 44.082 16.6639 42.287 16.6639C40.075 16.6639 38.445 15.0559 38.445 12.6799C38.445 10.3039 40.075 8.69686 42.287 8.69686C44.082 8.69686 45.362 9.65186 45.875 11.2819L48.576 10.5369C47.878 7.88186 45.385 6.15886 42.287 6.15886ZM50.346 6.50886V13.6829H50.348C50.348 17.1309 52.445 19.2039 55.869 19.2039C57.708 19.2039 59.199 18.6219 60.201 17.5729H60.247V18.8539H63.042V6.50886H60.153V13.2169C60.153 15.1969 58.78 16.5949 56.613 16.5949C54.445 16.5949 53.235 15.3599 53.235 13.2169V6.50886H50.346ZM65.602 6.50986H68.35V7.69786H68.396C69.235 6.81186 70.423 6.27586 71.867 6.27586C72.566 6.27586 73.172 6.39286 73.847 6.60286L73.219 9.23486C72.567 9.04886 72.124 8.97786 71.472 8.97786C69.678 8.97786 68.491 10.1889 68.491 12.6349V18.8539H65.602V6.50986ZM78.11 6.50986H75.362V18.8539H78.25V12.6349C78.25 10.1889 79.438 8.97786 81.232 8.97786C81.884 8.97786 82.327 9.04886 82.979 9.23486L83.607 6.60286C82.932 6.39286 82.326 6.27586 81.627 6.27586C80.183 6.27586 78.995 6.81186 78.156 7.69786H78.11V6.50986ZM83.863 12.7289C83.863 8.86286 86.634 6.15986 90.501 6.15986C94.369 6.15986 97.093 9.02586 97.093 12.7519V13.6139H86.728C86.821 15.5479 88.382 16.8049 90.642 16.8049C92.319 16.8049 93.531 16.1299 94.672 14.7089L96.605 16.4319C95.231 18.2019 93.298 19.2039 90.665 19.2039C86.449 19.2039 83.863 16.6409 83.863 12.7289ZM94.251 11.5179C94.089 9.79486 92.574 8.55986 90.548 8.55986C88.521 8.55986 86.961 9.79386 86.775 11.5179H94.251ZM102.008 6.50986H99.213L99.211 6.51086V18.8559H102.099V12.1249C102.099 10.1209 103.705 8.74686 105.849 8.74686C107.993 8.74686 109.32 10.0039 109.32 12.0999V18.8549H112.209V11.6579C112.209 8.39586 109.834 6.15986 106.316 6.15986C104.64 6.15986 103.056 6.74186 102.054 7.78986H102.008V6.50986Z" fill="#242424"/>
</g>
</g>
</g>
<defs>
<clipPath id="clip0_12_8">
<rect width="121" height="24" fill="white" transform="translate(0.5)"/>
</clipPath>
<clipPath id="clip1_12_8">
<rect width="121" height="24" fill="white" transform="translate(0.5)"/>
</clipPath>
<clipPath id="clip2_12_8">
<rect width="121" height="24" fill="white" transform="translate(0.5)"/>
</clipPath>
</defs>
</svg>
